<?xml version="1.0" standalone="no"?>
<!DOCTYPE svg PUBLIC "-//W3C//DTD SVG 1.1//EN" "http://www.w3.org/Graphics/SVG/1.1/DTD/svg11.dtd" >
<svg xmlns="http://www.w3.org/2000/svg" xmlns:xlink="http://www.w3.org/1999/xlink" version="1.1">
<metadata>
Created by FontForge 20190801 at Sat Oct  3 05:42:16 2009
 By Jimmy Wärting
Copyright (c) 2009 by Nate Piekos. Blambot.com. All rights reserved.
</metadata>
<defs>
<font id="InhumanBB" horiz-adv-x="462" >
  <font-face 
    font-family="Inhuman BB"
    font-weight="400"
    font-stretch="normal"
    units-per-em="1000"
    panose-1="2 0 5 6 0 0 0 2 0 4"
    ascent="750"
    descent="-250"
    x-height="485"
    cap-height="568"
    bbox="10 -97 725 654"
    underline-thickness="50"
    underline-position="-100"
    unicode-range="U+0020-2122"
  />
<missing-glyph horiz-adv-x="294" 
d="M33 464h228v-464h-228v464zM102 39h92v392h-92v-392z" />
    <glyph glyph-name="copyright" unicode="&#x28;C&#x29;" horiz-adv-x="772" 
d="M147 449h14l39 58h-15v29h30v17h-15v18l-71 -102h18v-20zM274 540h186v26h-186v-26zM615 209h49v25h-49v-25zM82 473h22v9l7 11l-30 21l21 29l30 -21l10 15l-27 19l21 29l27 -19l9 12h28v4h386v-14h21v15h23v-15h21v15h23v-15h39v-49h-18v-27h30v-141h-30v-102h17v-36
h-17v-17h17v-35h-17v-17h17v-36h-22v13l-77 -105h-6v-10h-31v39h-317v-39h-31v39h-24v-39h-31v29h-79v-29h-31v29h-6v18h7v229h-17v36h17v115h15v-339h42v62h-26v282h-13v35zM172 439v-173h-25v-31h22v-36h-22v-21h22v-36h-22v-16h22v-32h401l27 37h-10v388h-342v-12h-27z
M632 109l16 -13l26 35h-1v27h-17v-32h-32v3h-6l-32 -45v-33h21v-11l15 19l-18 14zM656 299h17v220h-70v-63h21v42h32v-199zM624 382v38h-21v-38h21zM324 287h-26v51h26v9h-14v25l-9 7l43 56v17l-63 -80h1v-204h9v8h13v16h-13v24h13v9h-13v24h13v25h12v-98h133v-19h-42v-8h52
v42h21v-60h-21v8h-63v-6h-34v6h-9v-6h-21v6h-8v-6h-22v6h-11v5h-9v-8h-10v234l-4 3l77 99l10 -6l-2 -2h99v21h21v-26h7v18h10v-73h-10v45h-13v-5h7v-62h-19v49h-8v-18h-12v18h-71l-4 -5h66v-13h-74v2l-18 -22h12v12h21v-24h-16v-7h16v-17h-16v-8h16v-16h-16v-151h-27v105z
M368 149v8h-22v-8h22z" />
    <glyph glyph-name="registered" unicode="&#x28;R&#x29;" horiz-adv-x="776" 
d="M147 449h14l39 58h-15v29h30v17h-15v18l-71 -102h18v-20zM274 540h186v26h-186v-26zM615 209h49v25h-49v-25zM82 473h22v9l7 11l-30 21l21 29l30 -21l10 15l-27 19l21 29l27 -19l9 12h28v4h386v-14h21v15h23v-15h21v15h23v-15h39v-49h-18v-27h30v-141h-30v-102h17v-36
h-17v-17h17v-35h-17v-17h17v-36h-22v13l-77 -105h-6v-10h-31v39h-317v-39h-31v39h-24v-39h-31v29h-79v-29h-31v29h-6v18h7v229h-17v36h17v115h15v-339h42v62h-26v282h-13v35zM172 439v-173h-25v-31h22v-36h-22v-21h22v-36h-22v-16h22v-32h401l27 37h-10v388h-342v-12h-27z
M632 109l16 -13l26 35h-1v27h-17v-32h-32v3h-6l-32 -45v-33h21v-11l15 19l-18 14zM656 299h17v220h-70v-63h21v42h32v-199zM624 382v38h-21v-38h21zM301 170h-26v83h-9v88h9v99h7v10h-5v15h32v-8h50v8h32v-8h59v8h18v-84l6 6v60h13v-25h12v-16h-12v-34h-10l-41 -39v-13
l44 43l7 -7l-51 -49v-3h42v-3h4v-74h14v-16h-14v-51h20v-16h-72v16h42v128h-8v-115h-18v18h-14v15h14v11h-14v16h14v11h-14v16h14v28h-10v-12h-18v12h-34v15h-18v-15h-22v-6h52v-10h-52v-94h-10v27h-10v-45h27v-16h-76v16h37v28h-11v-18zM450 365v60h-106v-9h96v-11h-96v-69
h74v9h11zM418 319h-74v-7h74v7zM334 312v7h-5v17h5v89h-33v-10h16v-16h-16v-12h16v-16h-16v-114h11v103h12v-67h6v11h4v8zM312 234h-11v-7h11v7zM312 211h-11v-7h11v7z" />
    <glyph glyph-name=".notdef" horiz-adv-x="294" 
d="M33 464h228v-464h-228v464zM102 39h92v392h-92v-392z" />
    <glyph glyph-name=".null" horiz-adv-x="0" 
 />
    <glyph glyph-name="nonmarkingreturn" horiz-adv-x="294" 
 />
    <glyph glyph-name="space" unicode=" " horiz-adv-x="294" 
 />
    <glyph glyph-name="space" unicode="&#xa0;" horiz-adv-x="294" 
 />
    <glyph glyph-name="C" unicode="C" horiz-adv-x="421" 
d="M87 62h-25v36h-19v189h19v18h-20v36h20v21h-20v36h20v1l-13 8l33 51l-15 9l20 30l15 -9l10 16l-14 9l19 30l14 -9l10 14v18h201v-27h14v46h28v-67h7v-36h-7v-82h-28v47h-22v36h-146v18h146v16h-175l-62 -96h21v18h20v44h33v-301h-27v-66h21v-30h180v37h32v-76h-15v-24
h-34v-28h-32v28h-61v-25h-32v2h-152v13h152v10h-162v29h77v32h-13v151h13v131h-31v-304zM144 72v-20h201v20h-201z" />
    <glyph glyph-name="c" unicode="c" horiz-adv-x="401" 
d="M122 227h-38v76h38v13h-20v37l-14 11l64 83v25l-93 -119h1v-303h13v12h20v23h-19v36h19v14h-19v36h19v36h18v-145h197v-29h-62v-11h78v62h31v-89h-31v12h-95v-9h-50v9h-13v-9h-31v9h-13v-9h-32v9h-17v7h-13v-12h-15v349l-6 4l115 148l14 -10l-2 -2h147v31h32v-39h10v27
h15v-109h-15v67h-20v-8h11v-92h-28v74h-13v-27h-17v27h-106l-6 -8h98v-19h-110v3l-26 -33h18v18h31v-36h-25v-11h25v-25h-25v-11h25v-24h-25v-225h-40v156zM188 22v11h-33v-11h33z" />
    <glyph glyph-name="D" unicode="D" horiz-adv-x="457" 
d="M403 127h1l-1 -1v-6h-4l-32 -47l13 -8l-19 -30l-14 9l-30 -45l-16 11l80 117v143h-17v-137h-21l14 -10l-78 -107h14v-29h-235v29h83v18h-84v29h65v49h-26v301h26v63h-51v-381h-15v156h-22v36h22v205h-24v36h24v7h8v29h32v-29h78v29h32v-39h23v39h31v-39h24v39h31v-39h17
v36h32v-36h4v-49h-4v-65h17v148h22v-97h17v-36h-17v-17h17v-36h-17v-17h17v-36h-17v-193zM311 166h-16v273h10v37h-135v-33h-22v-16h22v-36h-22v-20h22v-36h-22v-31h25v-241h49v-13h39l46 64h-5v36h30v37h-21v-21zM173 34v-18h43v18h-43z" />
    <glyph glyph-name="d" unicode="d" horiz-adv-x="436" 
d="M236 59l42 68v315h-80v-90h-19v90h-17v-133h15v-137h-15v-113h74zM380 142l-83 -133v-21h-49v17h-191v15h30v77h-15v-42h-16v387h-27v48h82v14h48v-14h30v14h49v-14h120v-48h-40v-14h41v-24h-41v-20h41v-24h-41v-70h17v53h19v-124h-14v-66h-6l-16 -26v-36l36 57v19h19
v325h18v-341h-6v-9h-5zM274 20l31 50h-22l-31 -50h22zM225 30h-120v-10h138zM122 59v12h-17v-12h17zM87 234v105h18v-161h17v179h-24v24h24v19h-24v25h24v17h-50v-208h15zM105 131h17v11h-17v-11zM105 95h17v12h-17v-12z" />
    <glyph glyph-name="E" unicode="E" horiz-adv-x="426" 
d="M104 199h31v132h-14v150h14v33h-84v29h169v24h31v-24h49v27h31v-27h12v44h28v-68h14v-36h-14v-27h-28v24h-162v-30h-21v-67h27v-35h105v21h28v-48h17v-35h-17v-27h-28v74h-105v-12h83v-36h-42v-19h-23v19h-18v-203h-27v-33h178v16h-133v18h133v35h22v21h28v-55h7v-36h-7
v-67h-28v46h-15v-27h-284v49h74v18h-75v36h18v13h-20v36h20v16h-20v36h20v20h-20v36h20v18h-18v190h18v36h26v-305zM343 493v21h-183v-21h183zM37 566h168v-13h-168v13zM135 115h-31v-12h31v12z" />
    <glyph glyph-name="e" unicode="e" horiz-adv-x="406" 
d="M122 421h40v-24h11v-190h-11v-10h11v-25h-11v-11h11v-24h-11v-12h11v-36h-11v-12h113v-18h-113v-9h127v27h16v-27h14v48h28v-65h-12v-8h20v67h15v-110h-15v28h-10v-39h-31v30h-241v12h-30v27h30v10h20v29h-16v36h16v62h19v-127h10v139h-37v77h37v155zM61 478h12v7h18v10
h31v-10h13v10h32v-10h13v10h50v-10h89v32h40v-102h-40v55h-73v-10h62v-29h-196v-146h-19v36h-19v36h19v15h-19v35h19v24h-20v11h-12v-356h-16v404h16v-12zM294 285h18v-24h-18v-45h-28v23h-80v14h80v73h28v-41zM211 310h31v-8h16v-36h-72v36h25v8zM155 470v-10h33v10h-33z
" />
    <glyph glyph-name="F" unicode="F" horiz-adv-x="386" 
d="M129 76v53h-26v301h26v62h-51v-380h-15v156h-22v36h22v188h-11v49h11v11h8v28h32v-29h88v-10h14v39h64v-39h24v39h31v-39h18v40h28v-123h-28v34h-164v-32h-23v-16h23v-36h-23v-62h136v24h28v-131h-28v34h-29v-16h-70v16h-12v-246h19v-29h-149v29h98v21h-98v28h79z
M291 298h-111v-11h111v11z" />
    <glyph glyph-name="f" unicode="f" horiz-adv-x="370" 
d="M121 70h-17v-45h58v-25h-119v25h42v71h-15v-42h-16v404h13v31h42v13h49v-13h30v13h49v-13h93v13h28v-111h-28v50h-169v-15h153v-18h-153v-100h14v-6h105v12h28v-107h-28v20h-54v22h-29v-22h-22v-11h70v-14h-70v-31h-14v-129h-40v28zM280 273h-105v-9h105v9zM85 233v105
h19v-161h17v179h-25v24h25v19h-25v25h25v17h-51v-208h15zM104 130h17v11h-17v-11zM104 94h17v11h-17v-11z" />
    <glyph glyph-name="G" unicode="G" horiz-adv-x="487" 
d="M270 293h124v24h-124v-24zM153 561l12 -10l-36 -43h9v-38l52 64h-13v29h196v9h15v-9h19v9h14v-130h-14v45h-19v-45h-15v45h-124v13h-31l-52 -64h2v-19h8v-287h-16v270h-21v-307h164l55 86h-13v72h-17v23h-22v-23h-23v23h-13v-36h-15v98h7v13h186v-32h-22v-54h18v-35h-18
v-21h18v-36h-10l-17 -26l24 -15l-19 -30l-25 15l-14 -22h28v-49h-33v-39h-32v39h-50v-39h-31v39h-23v-39h-32v39h-23v-39h-32v39h-16v-37h-32v151h-17v-149h-22v98h-18v36h18v17h-18v36h18v17h-18v35h18v102h-30v58h30v9h22v-119h17v150h9v44l-61 -71l-12 10zM388 534v-18
h19v18h-19zM373 516v18h-118v-18h118zM346 93l62 96h-10l-62 -96h10zM394 234v40h-24v-76z" />
    <glyph glyph-name="g" unicode="g" horiz-adv-x="421" 
d="M235 284v-16h56v16h-56zM107 430l-18 15l16 19l17 -15l23 29h-9v24h49v-17h137v17h32v-17h22v-15h-22v-86h-32v47h-23v-17h-32v17h-13v-17h-31v17h-18v-17h-32v17h-23v1l-34 -43h39v-340h111l45 65h-20v118h-56v-15h-16v67h-10v18h25v16h31v-16h122v-18h-56v-14h40v-24
h-40v-14h40v-24h-40v-64l24 34v15h18v-63h-9l-21 -31h11v-24h-27l-18 -26h25v-49h-11v-13h-49v13h-30v-13h-49v13h-120v49h40v13h-41v24h41v20h-41v24h41v71h-17v-54h-18v207l-20 16l17 22l-18 15l16 19l17 -15zM172 460h150v10h-142zM115 388l-21 -27h4v-23h17v50zM60 -2
h-18v341h18v-341z" />
    <glyph glyph-name="H" unicode="H" horiz-adv-x="503" 
d="M318 553v13h155v-13h-22v-45h-23v-22h21v-36h-21v-67h27v-301h-27v-52h36v-29h-139v29h21v37h-18v36h18v13h-20v36h20v16h-20v36h20v20h-20v36h20v13h-54v-16h-22v16h-14v-16h-23v16h-14v27h109v17h-146v-187h-10v-50h-27v-30h48v-38h14v-13h-155v13h22v95h-27v36h27v17
h-27v36h27v17h-27v35h27v102h-30v141h30v39h-20v36h41v16h23v-16h21v16h23v-16h26v-36h-6v-181h95v21h23v-21h28v119h18v85h-28zM402 30v37h-30v-37h30zM96 12h17v146h-17v-146zM166 530h-70v-232h17v199h32v-42h21v75zM166 381v38h-21v-38h21zM372 553v-354h30v132h-13v150
h13v72h-30zM402 115h-30v-12h30v12z" />
    <glyph glyph-name="h" unicode="h" horiz-adv-x="463" 
d="M358 229h-36v77h36v151h-10v-138h-17v61h-16v36h16v41h-47v27h127v-27h-16v-51h24v-36h-24v-11h24v-25h-24v-11h24v-25h-24v-10h16v-190h-16v-24h-37v155zM261 301h25v108h14v-108h15v-24h-15v-224h118v-36h-19v-16h-29v16h-12v-16h-30v16h-28v-12h-14v228h-108v-78h-24
v-22h29v-31h-29v-20h39v-25h-39v-16h44v-24h-44v-15h-32v15h-58v24h58v16h-58v25h58v237h-22v-223h-40v119h-21v31h21v22h-21v31h21v155h-14v32h126v-32h-72v-12h50v-31h-50v-44h22v19h16v18h40v-103h48v16h35v-16zM286 277h-108v-20h108v20zM313 174h18v36h17v-150h-17v28
h-18v36h18v14h-18v36z" />
    <glyph glyph-name="I" unicode="I" horiz-adv-x="259" 
d="M196 0h-77v150h-17v-148h-39v35h17v63h-17v35h17v17h-17v36h17v17h-17v36h17v102h-30v140h30v36h-20v49h144v-49h-16v-170h23v-29h-23v-197h-11v-50h-26v-30h45v-43zM119 291v199h32v-43h21v72h-70v-228h17zM172 412h-21v-38h21v38z" />
    <glyph glyph-name="i" unicode="i" horiz-adv-x="244" 
d="M79 483h100v-25h-11v-51h16v-137h-16v-73h22v-24h-22v-30h22v-25h-22v-73h-16v225h-15v-106h-19v162h-17v-179h25v-24h-25v-20h25v-24h-25v-15h25v-24h-25v-15h84v-25h-131v25h7v436h18v22zM137 458v-51h15v51h-15zM101 458v-25h17v25h-17zM118 373h-17v-11h17v11z
M118 409h-17v-12h17v12z" />
    <glyph glyph-name="J" unicode="J" horiz-adv-x="336" 
d="M239 504h25v-36h19v-190h-19v-18h20v-36h-20v-20h20v-36h-20v-16h20v-36h-20v-13h19v-36h-75v-18h73v-49h-215v27h-16v-46h-28v67h-7v36h7v46h28v-12h23v-35h65v-18h-65v-16h109v33h-27v301h27v67h-21v30h-21v13h42v21h-43v29h152v-29h-83v-33h13v-150h-13v-132h31v305z
M305 553h-168v13h168v-13zM208 103h31v12h-31v-12z" />
    <glyph glyph-name="j" unicode="j" horiz-adv-x="311" 
d="M193 266h37v-77h-37v-139h10v127h18v-62h17v-36h-17v-29h21v-10h30v-27h-30v-12h-172v-30h-31v39h-10v-28h-15v110h15v-67h27v8h-19v74h28v-57h14v27h2h14h57v12h-11v36h11v12h-11v24h11v11h-11v25h11v10h-11v190h11v24h41v-155zM254 490h16v-404h-16v356h-12v-11h-21
v-24h19v-35h-19v-15h19v-36h-19v-36h-18v146h-54v29h10v10h-22v15h11v10h32v-10h13v10h31v-10h18v-7h12v12zM95 50h57v9h-57v-9z" />
    <glyph glyph-name="K" unicode="K" horiz-adv-x="513" 
d="M96 138h-33v301h33v-301zM457 523h-61v-14h24v-25h-24v-48h35v-25h-10v-25l-61 -92l21 -22h5v18h53v-31h-26v-146h-57v139l-25 26h-87v14h72l-20 21h-37v-16h-56v16h-27v-74h-18v-73h19v-24h-19v-21h18v-25h-18v-27h15v-24h-15v-21h34v-29h-150v29h18v80h57v314h27v40
h-90v49h90v16h-104v43h158v-43h-22v-16h22v-49h-22v-97h111l65 97l12 -8v14h-38v95h25v7h106v-43zM331 323l6 -6l62 94h-17l-51 -74v-14zM429 61h-89v35h89v152h32v-224h15v-29h-136v29h89v37z" />
    <glyph glyph-name="k" unicode="k" horiz-adv-x="477" 
d="M53 453v34h129v-19h24v-25h-48v-27h-50v-49h22v19h15v18h41v-146h17v21h35v-21h22v30h41v190h16v8h104v-32h-51v-27h23v-31h-23v-12h21v-49h-28l-37 -76v-1h29v-23h7v-76h15v55h32v-55h11v-32h-11v-37h11v-32h-11v-26h31v-32l-63 1v126h-15v-126l-48 -1v32h15v160h-143
v-37h-24v-130h24v-25h-131v25h75v32h-58v25h58v237h-22v-223h-41v119h-20v31h20v22h-20v31h20v154h-14zM329 207v20h-143v-20h143zM326 431v-117l10 21v49h9v47h-19z" />
    <glyph glyph-name="L" unicode="L" horiz-adv-x="333" 
d="M95 199h31v132h-14v150h14v33h-83v29h152v-29h-43v-21h42v-13h-21v-30h-21v-67h27v-301h-27v-33h109v16h-65v18h65v35h23v12h28v-46h7v-36h-7v-67h-28v46h-16v-27h-216v49h74v18h-75v36h19v13h-20v36h20v16h-20v36h20v20h-20v36h20v18h-19v190h19v36h25v-305zM29 566h168
v-13h-168v13zM126 115h-31v-12h31v12z" />
    <glyph glyph-name="l" unicode="l" horiz-adv-x="330" 
d="M126 421h40v-24h12v-190h-12v-10h12v-25h-12v-11h12v-24h-12v-12h12v-36h-12v-12h58h14h2v-27h13v57h28v-74h-18v-8h27v67h15v-110h-15v28h-10v-39h-31v30h-172v12h-30v27h30v10h20v29h-16v36h16v62h19v-127h10v139h-37v77h37v155zM65 478h12v7h18v10h31v-10h13v10h32
v-10h11v-15h-23v-10h11v-29h-54v-146h-19v36h-18v36h18v15h-18v35h18v24h-20v11h-12v-356h-16v404h16v-12zM224 59h-58v-9h58v9z" />
    <glyph glyph-name="M" unicode="M" horiz-adv-x="717" 
d="M149 49h-18v63h-27v301h27v103h-52v-486h70v19zM310 115h29v-36h-29v-26h52v103h-27v251h33v-25h14l14 16l-15 13l44 51l15 -13l14 17l-14 13l52 60l14 -12l22 26h-5v13h156v-13h-23v-45h-22v-22h21v-36h-21v-67h27v-301h-27v-52h36v-29h-139v29h21v37h-19v36h19v13h-20
v36h20v16h-20v36h20v20h-20v36h20v18h-19v163l-121 -138v-38h-25v-31h23v-36h-23v-21h23v-35h-23v-17h23v-35h-23v-37h36v-3h22v-45h-32v29h-78v-29h-31v29h-9v248h-22v35h22v24l-42 42l-13 -13l-26 25l13 13l-48 48v-13h-23v-16h23v-36h-23v-20h23v-36h-23v-31h25v-274h18
v-29h-154v29h19v221h-22v36h22v205h-24v36h24v7h8v29h32v-29h52v29h31v-10l139 -140l-16 -16v-47v-1v-235zM407 345l54 61l-9 8l-59 -69h14zM485 433l67 77v20l-77 -89zM295 399h1l-116 117h-24v-13l139 -138v34zM608 67h-31v-37h31v37zM608 553h-31v-354h31v132h-13v150h13
v72zM608 115h-31v-12h31v12z" />
    <glyph glyph-name="m" unicode="m" horiz-adv-x="681" 
d="M139 410h-20v-72h17v51h22zM406 304l112 99h-23l-89 -82v-17zM542 403l-16 -14h26v-223h22v237h-32zM511 375l-105 -93v-108h-11v-10h11v-25h-11v-11h11v-25h-11v-11h11v-36h-11v-27h19v-29h-136v29h48v17h-16v36h16v62h19v-115h10v127h-38v77h38v103h19v28h31l18 16
l-16 18l27 24l15 -17l18 15l-16 18l27 23l15 -16l23 21v19h133v-25h-43v-130h24v-249h-41v17h-15v19h-22v-49h50v-23h43v-44h-59v35h-34v-34h-41v183h-20v32h20v21h-20v31h20v106zM181 484v-16l112 -118h1v-1l24 -25h8v23h19v-95h-19v36h-19v24l-13 14v-273h-16v206
l-102 110v-342h21v-27h-157v27h23v312h10v25h-26v24h26v22h-24v24h24v11h28v15h-59v24h139zM144 460v-3l134 -145v31l-111 117h-23zM557 460l-35 -33h52v33h-17zM136 27v35h-41v24h41v20h-41v24h41v71h-17v-54h-18v143h-19v-263h54z" />
    <glyph glyph-name="n" unicode="n" horiz-adv-x="458" 
d="M96 73h-40v25h-11v189h11v11h-11v24h11v12h-11v24h11v12h-11v35h11v53h-13v27h131v-27h-17l22 -40l12 8l23 -37l-14 -8l12 -22l15 9l22 -36l-16 -10l63 -114v131h10v25h-25v24h25v22h-24v24h24v11h28v8h-52v25h130v-25h-60v-19h25v-24h-25v-72h17v51h40v-346h12v-24h-12
v-17h-40v60h-41v24h41v20h-41v24h41v71h-17v-54h-18v143h-19v-253h41v-25h-41v-14h-19v92l-123 217v-303h-16v13h-12v-7h-17v-10h-32v10h-13v-10h-31v10h-12v15h23v10h-11v29h55v146h18v-36h19v-36h-19v-15h19v-36h-19v-23h20v-11h12v354l-28 51h-4v-43h17v-35h-17v-62h-18
v140h-11v-152h38v-77h-38v-156zM273 200l-15 -10l38 -68v37zM236 228l16 10l-79 141v-40z" />
    <glyph glyph-name="N" unicode="N" horiz-adv-x="533" 
d="M139 365h-31v-132h13v-150h-13v-33h83v-28h-152v28h43v21h-42v13h21v30h21v67h-27v301h27v57h-45v29h149v-29h-5l77 -106l18 12l24 -35l-17 -12l69 -97v153h18v99h-28v13h155v-13h-22v-45h-23v-22h21v-36h-21v-67h27v-301h-27v-52h37v-29h-140v29h21v37h-18v36h18v13h-19
v36h19v16h-19v36h9l-184 257h-12v-13h20v-36h-9l149 -199v-43l-29 38l-17 -12l-24 36l16 11l-88 118h-18v-21h20v-36h-20v-18h19v-190h-19v-35h-25v304zM120 539h-12v-42h43zM396 240l30 -41h1v132h-14v150h14v72h-31v-313zM427 67h-31v-37h31v37zM427 115h-31v-12h31v12z
M205 -2h-168v14h168v-14zM108 450h31v11h-31v-11z" />
    <glyph glyph-name="O" unicode="O" horiz-adv-x="487" 
d="M133 448h14l40 58h-16v29h30v18h-14v17l-72 -101h18v-21zM346 208h49v25h-49v-25zM69 473h22v9l7 10l-30 21l20 29l30 -21l11 15l-27 19l20 29l27 -19l9 12h29v5h129v-15h22v15h23v-15h21v15h23v-15h39v-48h-18v-28h30v-141h-30v-102h17v-35h-17v-17h17v-36h-17v-17h17
v-36h-23v14l-77 -106h-5v-10h-31v39h-62v-39h-31v39h-23v-39h-32v29h-78v-29h-32v29h-5v19h7v229h-18v35h18v116h14v-340h43v63h-27v281h-12v36zM158 439v-174h-25v-31h23v-36h-23v-21h23v-35h-23v-17h23v-32h145l27 37h-10v389h-86v-13h-28zM363 108l16 -13l26 35h-1v28
h-17v-33h-32v3h-6l-33 -45v-33h22v-11l15 20l-18 14zM387 298h17v221h-70v-64h21v42h32v-199zM355 381v38h-21v-38h21z" />
    <glyph glyph-name="o" unicode="o" horiz-adv-x="436" 
d="M129 374h30v-56h14v-137h-14v-132h17v89h19v-89h67v-20l13 12v327h40v-30h17v72h-25v21h-158v22l-41 -36h-14v-8h8v-25h16v31h32v-34h-21v-7zM295 33l13 -15l-24 -20l-12 14l-10 -9v-3h-27v-13h-49v13h-30v-13h-49v13h-42v31h-12v323h9v91h14l58 52h27l-67 -60v-12l85 74
v10h49v-24h147v-15h-25v-25h29v-11h23v-24h-23v-22h25v-24h-25v-25h9v-234h-12l-15 -14l23 -25l-24 -21l-22 25l-11 -9l23 -26l-23 -20l-23 26zM369 124v166h-19v-143h-18v54h-17v-71h41v-18zM348 106h-33v-30zM169 470l-12 -10h150v10h-138zM68 256v-207h51v16h-25v25h25
v19h-25v25h25v178h-17v-161h-18v105h-16zM102 348h17v11h-17v-11z" />
    <glyph glyph-name="P" unicode="P" horiz-adv-x="432" 
d="M89 117h-32v301h32v-32h22v66h-57v73h-20v43h59v11h31v-11h25v16h31v-16h154v-21h24v20h32v-26h23v-24h-23v-20h23v-25h-23v-48h34v-25h-17l-80 -119l-13 9l9 12h-70v-16h-56v16h-27v-204h22v-48h-22v-18h25v-29h-105v-17h-32v17h-17v29h97v18h-90v48h90v40h-27v98h-22
v-118zM390 399h-14l-51 -74v-21zM111 259v103h-22v-103h22zM210 486h-59v-137h129l66 97l12 -8v14h-65v73h-142v-14h59v-25z" />
    <glyph glyph-name="p" unicode="p" horiz-adv-x="416" 
d="M65 26v160h-21v31h21v22h-21v31h21v119h40v-223h22v237h-58v25h58v26h-77v34h298v-9h19v-12h23v-32h-23v-7h23v-31h-23v-12h22v-50h-5l-52 -98v-9h-149v-13h128v-15h-128v-119h-40v18h-16v19h-22v-49h50v-32h-50v-11h77v-25h-130v25h13zM367 335h-13l-38 -76h12zM200 259
v21h35v-21h53l10 20v175h-139v-18h126v-24h-126v-81h24v-72h17zM342 432h-19v-104l10 21v36h9v47z" />
    <glyph glyph-name="Q" unicode="Q" horiz-adv-x="488" 
d="M354 137h-14l-40 -58h16v-28h-30v-18h14v-18l72 102h-18v20zM246 100l15 23l35 -23l10 13l-60 40l25 37l58 -38v168h25v32h-23v35h23v21h-23v36h23v16h-23v32h-145l-27 -37h10v-388h86v12h22zM141 377h-49v-24h49v24zM418 113h-21v-9l-8 -10l70 -47l-21 -29l-69 46
l-11 -15l74 -50l-21 -30l-73 51l-9 -12h-29v-4h-129v14h-22v-15h-23v15h-21v-15h-23v15h-39v49h18v28h-30v140h30v102h-17v36h17v17h-17v36h17v17h-17v35h23v-13l77 106h5v9h31v-39h24v39h69v-39h23v39h32v-29h78v29h32v-29h5v-18h-7v-229h18v-36h-18v-115h-14v339h-42v-62
h26v-281h12v-36zM124 477l-16 13l-26 -34h1v-28h17v32h32v-3h6l33 45v33h-22v12l-15 -20l18 -14zM100 287h-17v-220h70v63h-21v-42h-32v199zM132 204v-38h21v38h-21z" />
    <glyph glyph-name="q" unicode="q" horiz-adv-x="443" 
d="M290 115v52h-14v137h14v133h-17v-90h-18v90h-67v19l-13 -12v-327h-40v31h-18v-72h25v-22h107l-52 42l21 26l97 -77l11 10l-117 96l15 19zM407 -53l-75 55l-16 -14h-27l66 60v13l-85 -75v-10h-48v24h-148v15h25v26h-28v10h-24v25h24v21h-25v24h25v25h-9v235h11l15 13
l-22 25l23 21l23 -25l10 9l-23 26l24 21l23 -26l8 7l-12 15l23 21l13 -15l10 9v4h27v13h48v-13h30v13h49v-13h42v-32h13v-322h-10v-92h-14l-6 -5l68 -49zM347 69h8v8l-7 25h-17v-20zM289 23l-4 2h-143v-10h138zM80 361v-166h19v143h18v-53h18v70h-41v18zM101 379h34v30z
M381 229v208h-50v-17h24v-24h-24v-20h24v-24h-24v-179h17v162h18v-106h15zM348 137h-17v-11h17v11z" />
    <glyph glyph-name="R" unicode="R" horiz-adv-x="494" 
d="M185 77v-29h-98v-20h97v-29h-148v29h19v293h25v88h-23v36h23v16h-23v32h-10v41h-14v18h62v29h31v-29h43v-10h31v39h32v-39h12v39h32v-39h11v39h32v-39h18v39h35v-39h77v-49h-39v-27h39v-47h-40l-68 -83l6 -7l48 59l21 -17l-50 -62l55 -62h10v-51h23v-45h-23v-27h23v-45
h-23v-51h31v-29h-121v29h18v66h-18v136h18v43h-102v-16h-70v16h-21v-178h-14v178h-20v-143h-27v-53h80zM186 493h-20v-162h129l57 70h-15v92h-108v-22h-43v22zM382 437v56h-10v-68zM384 265v-237h18v218zM340 314v-16h-174v-10h197zM152 288v10h-20v-10h20zM152 331v162h-47
v-62h27v-100h20z" />
    <glyph glyph-name="r" unicode="r" horiz-adv-x="441" 
d="M98 42h-40v130h-14v137h14v155h10v15h-7v24h49v-13h79v13h49v-13h93v13h28v-131l9 9v93h20v-39h19v-25h-19v-53h-15l-64 -60v-20l69 66l11 -11l-80 -76v-4h65v-5h7v-116h21v-25h-21v-80h31v-25h-112v25h65v201h-13v-180h-28v27h-21v24h21v18h-21v24h21v18h-21v25h21v44
h-15v-19h-28v19h-54v23h-28v-23h-34v-10h81v-15h-81v-147h-16v42h-15v-71h42v-25h-119v25h58v44h-17v-28zM331 346v95h-166v-14h150v-18h-150v-107h116v13h17zM281 274h-116v-10h116v10zM149 264v10h-7v28h7v139h-51v-16h25v-25h-25v-19h25v-25h-25v-178h17v161h19v-105h9
v18h6v12zM115 142h-17v-11h17v11zM115 106h-17v-11h17v11z" />
    <glyph glyph-name="S" unicode="S" horiz-adv-x="469" 
d="M334 123h-14l-39 -57h15v-29h-30v-18h14v-18l72 102h-18v20zM117 339v24h-41v-24h41zM152 365v-89h157v17h-139v57h194v-23h22v-192h13v-36h-22v-9l-7 -10l30 -22l-21 -29l-30 22l-11 -15l27 -19l-20 -30l-27 19l-9 -12h-29v-4h-101v14h-22v-15h-23v15h-21v-15h-23v15
h-39v49h18v28h-14v52h36v-80h70v64h-21v-42h-32v58h69v-80h23v13h63l46 67v111h-213v29h-30v-29h-22v79h-17v36h17v17h-17v36h17v17h-17v36h23v-14l77 106h5v9h32v-39h23v39h66v-39h24v39h31v-29h78v29h32v-29h6v-18h-7v-84h-15v43h-42v-43h-26v11h-22v32h-143l-27 -37h10
v-76zM417 327v-37h17v-36h-17v-115h-15v188h15zM108 464l-17 13l-25 -35v-28h17v32h32v-3h6l33 45v33h-22v12l-14 -20l17 -14z" />
    <glyph glyph-name="s" unicode="s" horiz-adv-x="407" 
d="M293 112h-30v55h-14v55q-45 0 -88.5 -0.5t-88.5 -0.5v117h18v-53h17v70h-40v18l-14 -12v-140h-18v160h11l15 13l-22 26l23 20l23 -25l10 9l-23 26l24 21l23 -26l8 8l-13 14l24 21l13 -15l10 9v4h27v13h48v-13h30v13h49v-13h42v-32h13v-68h-16v51h-50v-17h24v-24h-24v-10
h-41v51h-102v19l-13 -11v-143q40 0 78 1t78 1v-130h17v130h18v-74h15v74h16v-172h-10v-91h-14l-57 -53h-27l66 61v12l-85 -74v-10h-48v23h-118v15h25v26h-28v11h-24v24h24v21h-26v14h72v-35h25v-21h128v-22l42 36h13v8h-7v25h-17v-31h-31v34h20v7zM207 254v16h-59v-16h59z
M230 270v-16h19v16h-19zM74 380h33v29zM253 15l12 11h-120v-11h108zM321 138h-17v-12h17v12z" />
    <glyph glyph-name="T" unicode="T" horiz-adv-x="409" 
d="M19 535h13v44h31v-44h15v36h32v-36h23v36h31v-36h17v37h32v-37h17v22h22v-22h97v19h31v-19h13v-49h-13v-43h-31v43h-80v-32h-17v-17h17v-36h-17v-17h17v-36h-17v-101h30v-141h-30v-25h31v-29h-31v-15h46v-36h-90v36h22v15h-70v-15h27v-36h-65v36h22v430h11v19h-92v-55
h-31v55h-13v49zM213 98h-32v44h-21v-61h70v217h-17v-200zM230 486h-17v-47h17v47zM160 178h21v37h-21v-37z" />
    <glyph glyph-name="t" unicode="t" horiz-adv-x="355" 
d="M199 412h40v-24h11v-190h-11v-10h11v-25h-11v-11h11v-25h-11v-11h11v-36h-11v-52h13v-27h-131v27h49v42h-16v36h16v62h19v-140h10v152h-37v77h37v155zM270 416v14h45v11h-72v-19h-54v-146h-19v36h-19v36h19v14h-19v36h19v24h-20v11h-12v-356h-16v364h-59v-11h41v-14h-41
v-11h-31v36h-22v49h14v13h48v-13h80v13h48v-13h120v-11h38v-24h-25v-44h-18v5h-45z" />
    <glyph glyph-name="U" unicode="U" horiz-adv-x="487" 
d="M166 403h-24v-44h24v-79h-19v-100h-13l55 -86h138v37h-11v388h-26v49h46v15h23v-15h21v15h23v-15h39v-49h-18v-27h30v-141h-30v-102h17v-36h-17v-17h17v-35h-17v-17h17v-36h-17v-98h-22v148h-17v-64h4v-49h-4v-37h-32v37h-17v-39h-31v39h-23v-39h-32v39h-23v-39h-32v39
h-49v-39h-32v39h-34v49h29l-14 22l-25 -16l-19 31l24 15l-17 26h-10v36h18v20h-18v36h18v16h-21v79h39v44h-39v59h47v26h-41v48h41v14h-53v18h137v-18h-16v-88h6v-59zM121 280h-23v-45l23 -37v82zM115 462h22v88h-22v-88zM385 299h17v220h-70v-63h21v42h32v-199zM353 382v38
h-21v-38h21zM146 94h10l-62 96h-10z" />
    <glyph glyph-name="u" unicode="u" horiz-adv-x="422" 
d="M95 287h48v-172h-37l45 -66h111v341h40v-52h17v72h-59v25h59v26h-64v25h123v-25h-40v-16h28v-10h23v-25h-23v-21h25v-24h-25v-25h9v-341h-18v292h-19v-143h-19v53h-17v-70h41v-25h-41v-19h41v-24h-41v-14h40v-49h-120v-13h-49v13h-30v-13h-48v13h-12v49h25l-18 26h-27v25
h11l-21 30h-9v64h18v-15l24 -34v64h-40v24h40v13h-40v25h17v16h-16v51h16v12h-18v25h18v14h-18v25h18v18h-22v29h22v10h-23v15h117v-15h-62v-10h42v-9h17v-90h-20v-12h-39v-14h27v-36h-27v-13zM118 432h-23v-18h23v18zM118 389h-23v-14h23v14z" />
    <glyph glyph-name="V" unicode="V" horiz-adv-x="493" 
d="M183 215v-13h-15l86 -128l69 112h-13v14h21l12 19h-38v36h25v86h-11v157h11v50h26v8h-61v13h61v29h33v-29h60v-13h-22v-35h27v-35h-27v-17h27v-36h-27v-17h27v-36h-27v-106h-17l-13 -19h37v-36h-59l-11 -19h70v-14h-51v-14h39v-13h-39v-54h-18v-21h-25v-24h-14v-12h-45
v-13h33v-36h-46v26h-13v-26h-84v36h10v25h11l-3 4h-63v22h49l-12 17h-57v10h51l-10 14h-65v37h41l-10 14h-73v14h24v10h-24v13h24v30h-18v301h27v31h39v-16h62v-36h-18v-12h19v-36h-19v-16h19v-36h-19v-21h19v-36h-19v-18h18v-62h-18v-73h27zM351 119v59l-11 -18v-41h11z
M312 115l-19 -31h19v31zM376 272h-14v-17h3zM104 192l-7 10h-1v-10h8zM96 215h34v214h-18v-125h-16v-89zM405 330h-16v-42h16v42zM405 556h-16v-85h16v85zM112 514h18v11h-18v-11z" />
    <glyph glyph-name="v" unicode="v" horiz-adv-x="446" 
d="M90 256h35v-66h22v242h-117v36h18v17h30v-17h12v17h30v-17h27v12h15v-290h11v-31h-13v-29h9v-32h-9v-13h11v-18h76v56h25v20h57l9 16h-38v21h-30v151h24v21h-29v31h29v21h-39v24h39v16h-27v24h27v15h32v-15h76v-24h-76v-16h57v-24h-57v-183h-16v-13h38v182h40v-120h21
v-31h-21v-22h21v-31h-14l-7 -11v-1l-94 -154v-1l-8 -12v-6h-3h-40h-59h-22h-7v12l-58 85h-33v32h12l-25 36h13v24h18v17h-15v-10h-31v190h16v24h38v-155zM157 43l11 -17h79v17h-90zM294 98h7l9 14h-16v-14zM131 98h-12l9 -13h3v13zM98 130h33v29h-53zM135 311h-18v-36h-17
v150h17v-28h18v-35h-18v-15h18v-36z" />
    <glyph glyph-name="W" unicode="W" horiz-adv-x="706" 
d="M570 518h19v-64h26v-301h-26v-103h51v487h-70v-19zM409 452h-29v18h-48v-6h26v-53h26v-251h-33v25h-14l-14 -17l15 -13l-44 -51l-15 13l-14 -17l15 -12l-53 -60l-14 12l-22 -26h5v-14h-156v14h23v44h22v23h-21v35h21v67h-27v301h27v53h-36v28h139v-28h-20v-38h18v-36h-18
v-13h19v-35h-19v-17h19v-35h-19v-21h19v-36h-19v-18h18v-163l121 138v38h25v32h-23v35h23v21h-23v36h23v16h-23v29h-16v18h146v-18h-15v-185h22v-36h-22v-23l42 -42l13 13l26 -26l-13 -12l49 -48v12h22v16h-22v36h22v21h-22v35h22v32h-25v274h-18v28h154v-28h-19v-222h22
v-36h-22v-205h24v-36h-24v-7h-8v-28h-32v29h-52v-29h-31v9l-139 140l16 16v47v1v236zM312 222l-54 -62l9 -7l59 69h-14zM235 133l-67 -76v-20l76 88zM424 168l116 -118h23v14l-139 137v-33zM111 499h31v38h-31v-38zM111 14h31v353h-31v-131h14v-151h-14v-71zM111 452h31v11
h-31v-11z" />
    <glyph glyph-name="w" unicode="w" horiz-adv-x="670" 
d="M540 77h20v72h-17v-52h-22zM273 183l-112 -100h23l89 83v17zM137 83l16 15h-25v222h-22v-237h31zM168 111l105 93v108h11v11h-11v24h11v11h-11v25h11v11h-11v7h-8v29h148v-29h-60v-58h-18v58h-11v-71h38v-76h-38v-103h-19v-28h-31l-18 -17l16 -18l-27 -24l-15 18l-17 -16
l15 -18l-27 -23l-15 16l-23 -21v-18h-133v24h43v130h-23v250h40v-18h16v-19h22v49h-50v23h-44v44h59v-35h35v34h40v-183h20v-31h-20v-22h20v-31h-20v-106zM498 2v16l-112 119h-1l-24 25h-8v-23h-18v95h18v-36h19v-24l13 -14v231h16v-163l102 -111v342h-21v27h157v-27h-23
v-312h-9v-25h25v-24h-25v-21h23v-25h-23v-10h-29v-16h59v-24h-139zM535 26v3l-134 145v-30l111 -118h23zM122 26l36 33h-52v-33h16zM543 459v-35h41v-24h-41v-20h41v-24h-41v-70h17v53h18v-143h19v263h-54z" />
    <glyph glyph-name="X" unicode="X" horiz-adv-x="520" 
d="M205 332l13 21l-32 48l22 15l-18 27l-77 -48l-26 41l28 18l-44 72l-39 1v43l172 -1v-43h-29l16 -25l17 11l26 -41l-16 -11l32 -50l37 63l15 -8l32 56h-16v13h24l13 23h-32v13h171v-13h-41l-13 -23h34v-13h-42l-12 -21l18 -10l-25 -43l-18 10l-11 -19l17 -10l-18 -31
l-17 10l-54 -91l21 -33l-15 -10l40 -61l16 11l13 -20l-16 -11l11 -18l15 10l14 -20l-15 -10l15 -23l12 8l13 -20l-12 -8l53 -81h17v-29l-160 2v28h25l-49 76l48 31l-114 174l-12 -22l89 -136l-27 -17l-29 44l-60 -105l-24 13l-34 -59l41 -1v-28l-161 1v29l25 -1l50 87l-15 9
l17 31l16 -9l6 12l-16 9l18 31l16 -9l8 14l-16 9l18 31l16 -9l10 18l-16 9l18 31l15 -9l-68 103l27 18zM373 534h35l13 23h-35zM401 521h-36l-88 -152l11 -16l59 101l11 -7zM142 470l22 14l-28 42h-28zM117 30l34 59l-26 15l-43 -74h35zM175 130l-27 15l-5 -10l26 -15z
M217 203l16 27l-19 29l-23 -40zM369 31h59l-17 27z" />
    <glyph glyph-name="x" unicode="x" horiz-adv-x="443" 
d="M296 91l-34 -21l-37 60l-67 -104h20v-25h-151v25h32l41 63l20 -13l-32 -50h23l36 55l-35 23l13 20l35 -23l11 17l-35 22l13 21l35 -23l18 29l-10 17l-14 -22l-15 10l18 29l-10 18l-105 -162l-16 10l110 169l-16 25l-9 -6l-13 21l10 6l-6 10l-10 -6l-13 21l10 6l-6 9
l-10 -6l-18 31l9 6l-28 47l34 21l111 -182l35 54l-23 15l9 14l-53 86l13 9l49 -80l21 33l-21 13l14 21l21 -14l11 18l-20 13l14 20l19 -13l6 9l-11 7l11 17h-22v24h130v-24h-38l-12 -18l22 -15l-13 -20l-22 14l-12 -19l21 -13l-13 -21l-21 14l-58 -90l10 -16l51 79l34 -22
l-61 -95l102 -167l-14 -8l-98 160l-19 -30l1 -3l16 10l19 -30l-16 -10l8 -13l16 10l18 -30l-16 -10l13 -20l17 10l15 -24l-77 -47h20l62 38l8 -13l-19 -11l9 -14h56v-36h-146v36h7l-14 23l46 28l-54 89l-7 -10zM87 435l-26 -16l-19 31l13 8l-21 -1v28l131 1v-27l-34 -1
l10 -16l-19 -12l20 -33l14 9l19 -30l-15 -9l33 -52l-16 -10l-94 153h-9zM317 427l7 -5l24 39h-9zM216 221l10 -16l37 57l-10 16z" />
    <glyph glyph-name="Y" unicode="Y" horiz-adv-x="452" 
d="M203 63h-26v35h-18v190h18v18h-20v6h-116v35h29v22h-31v36h31v18h-31v35h31v14h25v45h-25v24h-26v28h126v-28h-16v-77h14v-35h-14v-82h18v27h48v-27h11v31h23v-31h50v194h-21v28h95v16h26v-16h19v-28h-19v-142h27v-36h-27v-29h-21v-22h-97v-129h-27v-67h21v-30h21v-13
h-42v-21h43v-29h-152v29h83v33h-13v150h13v69h21v8h-51v-249zM330 375h48v166h-16v-25h-32v-20h32v-36h-32v-23h32v-36h-32v-26zM118 541v-145h-15v-49h28v194h-13zM136 14h168v-14h-168v14z" />
    <glyph glyph-name="y" unicode="y" horiz-adv-x="437" 
d="M126 274h-26v38h-20v-38h-26v59h-20v107h20v16h-22v30h126v-30h-32v-14h30v-28h-30v-17h30v-28h-30v-44h148v-13h-56v-13h71v176h-12v19h116v-19h-57v-6h47v-37h-47v-22h59v55h16v-101h-16v9h-59v-20h50v-63h-5v-21h-96v-177h-11v-25h-40v159h-38v43h-23v-223h12v11h20
v24h-19v37h19v15h-19v36h19v37h18v-149h54v-29h-10v-11h42v-15h-124v7h-12v-12h-16v272h-20v30h49v13h-60v-38zM80 325h20v131h-20v-131z" />
    <glyph glyph-name="Z" unicode="Z" horiz-adv-x="508" 
d="M357 406l27 -18l-97 -147l12 -8l-18 -30l-13 8l-13 -19l14 -8l-18 -31l-15 9l-17 -25l-27 17zM479 -12h-19v15l-440 -2l-1 29h17l53 81l-12 8l13 20l13 -8l14 23l-15 10l14 20l15 -10l11 18l-16 11l13 20l17 -11l39 61l-15 10l116 177l-17 11l7 11h-62v-22h-29v22h-17
v-22h-30v22h-35v19h185l7 11l17 -11l17 25h-252v-58h-33v102l225 -1v19h36v-19l165 1l1 -43l-38 -1l-45 -72l28 -18l-25 -41l-78 48l-18 -27l22 -15l-172 -263l48 -31l-30 -46h113v43h31v-43h22v43h32v-43h18v42h32v-42h5v-14h-262l-11 -17l307 1v81h19v-124zM377 526
l-27 -42l21 -14l35 56h-29zM103 58l-19 -28h61z" />
    <glyph glyph-name="z" unicode="z" horiz-adv-x="450" 
d="M223 224l-36 22l33 53l36 -22l88 144l34 -21l-28 -47l9 -6l-18 -31l-10 6l-6 -9l10 -6l-13 -21l-10 6l-6 -10l10 -6l-13 -21l-10 6l-117 -191l-34 21zM376 62h30v47h18v-114h-18v31h-17v-25h-368v36h56l9 14l-19 11l8 13l62 -38h20l-77 47l15 24l17 -10l13 20l-16 10
l18 30l16 -10l8 13l-16 10l19 30l16 -10l19 31l15 -9l-76 -125l46 -28l-14 -23h53v25h30v-25h31v25h84v49h18v-49zM273 485h28v23h29v-23h74l-1 -28l-20 1l13 -8l-19 -31l-27 16l14 23h-9l-94 -153l-16 10l32 52l-14 9l19 30l14 -9l18 30h-204v-41h-26v41h-14v-41h-25v41
h-19v18h273l7 13l-272 1v27h25v22h23v-22l162 -1v23h29v-23zM54 64l-14 8l211 345l14 -9z" />
    <glyph glyph-name="at" unicode="@" horiz-adv-x="761" 
d="M147 449h14l39 58h-15v29h30v17h-14v18l-72 -102h18v-20zM507 154v-60h63l27 37h-10v388h-341v-12h-28l-46 -68v-173h-25v-31h22v-36h-22v-21h22v-36h-22v-16h10v-91h-62v-29h-32v29h-6v18h7v229h-17v36h17v115h15v-339h42v62h-26v282h-13v35h22v9l7 11l-30 21l21 29
l30 -21l11 15l-28 19l21 29l27 -19l9 12h29v4h385v-14h22v15h22v-15h21v15h23v-15h39v-49h-18v-27h30v-141h-30v-102h17v-36h-17v-17h17v-35h-17v-17h17v-36h-22v13l-77 -105h-6v-10h-31v39h-130v23h-23v86h-145v9h-16v12h-18v31h18v7h-18v32h18v12h-17v49h23l19 47h-27v29
h-35v32h5v10h27v-10h12v10h26v-10h117v10h46v-186h47v-24h-47v-16h47v-10h15v-34h-13zM489 94v60h-16v-60h16zM525 424h-17v-21h17v-32h-17v-119h-32v172h49zM398 382v-20h-29v20h-48l-3 -6v-188h78v10h36v113h-20v71h-14zM282 210h16v117l-8 -21v-49h-8v-47zM274 540h186
v26h-186v-26zM615 209h49v25h-49v-25zM632 109l16 -13l26 35h-1v27h-17v-32h-32v3h-5l-33 -45v-33h21v-11l15 19l-18 14zM656 299h17v220h-70v-63h21v42h32v-199zM624 382v38h-21v-38h21z" />
    <glyph glyph-name="dollar" unicode="$" horiz-adv-x="406" 
d="M294 157h-29v56h-15v55q-45 0 -88.5 -0.5t-88.5 -0.5v117h19v-53h17v70h-41v18l-14 -12v-140h-18v160h12l15 13l-23 25l24 21l22 -25l10 9l-23 26l24 21l23 -26l9 7l-13 15l23 21l13 -15l10 9v4h27v65h48v-65h31v65h48v-65h43v-32h12v-68h-16v51h-50v-17h24v-24h-24v-10
h-40v51h-103v19l-13 -11v-143q41 0 78.5 1t77.5 1v-131h17v131h18v-74h15v74h16v-172h-10v-91h-13l-58 -53h-27l66 61v12l-85 -74v-62h-48v75h-30v-76h-36v76h-52v15h25v26h-28v10h-24v25h24v21h-25v14h71v-35h25v-22h129v-21l41 36h13v8h-7v25h-16v-31h-32v34h20v6z
M208 300v16h-59v-16h59zM232 316v-16h18v16h-18zM75 426h34v29zM254 61l12 11h-120v-11h108zM322 184h-17v-12h17v12z" />
    <glyph glyph-name="ampersand" unicode="&#x26;" horiz-adv-x="527" 
d="M381 570v-43h-173v-13h141v-13h-24v-17h-32v17h-85v-37h-65v-13l12 8l74 -110h156v-49h-81v-15h77v-15h-210v3l-20 -20v-139h-56v145h-27v32h53v-18h5l21 22l-61 92v25h-10v25h35v48h-23v24h23v21h-23v24h23v26h32v-20h23v10h119v11h32v-11h64zM404 212h-11v25h56v-11h59
v-24h-57v-94h-26v52h-21v52zM336 110v23h25v25h-9v58h18v-9h23v-154h-32v8h-82v-17h85v-9h18v-2h67v-24h-67v-12h-32v12h-1v6h-204v-18h-31v18h-16v29h88v17h-108v-47h-32v234h32v-151h123v-21h16v-32h10v32h17v34h92zM433 63h-32v25h32v-25zM248 285v15h-50l-15 -15h65z
M176 338l-51 74h-17l62 -94l6 6v14z" />
    <glyph glyph-name="bar" unicode="|" horiz-adv-x="198" 
d="M69 68h-32v376h32v-39h22v81h-57v120h57v9h-18v30h32v-24h24v31h31v-70h-28v-22h45v-164h-45v-78h18v-9h22v-31h-22v-234h22v-61h-22v-22h26v-36h-106v-22h-32v22h-17v36h97v22h-90v61h90v49h-27v122h-22v-147zM91 246v128h-22v-128h22z" />
    <glyph glyph-name="slash" unicode="/" 
d="M138 117h-32l135 301h33l-14 -32h22l29 66h-58l43 95h58l3 7h-18l11 25h31l-9 -20h25l11 25h31l-25 -56h-29l-8 -17h45l-59 -132h-45l-28 -63h19l-3 -7h22l-11 -24h-22l-85 -188h22l-22 -48h-21l-8 -18h25l-13 -29h-105l-8 -17h-32l8 17h-17l13 29h96l8 18h-89l21 48h90
l18 40h-27l44 98h-22zM224 259l47 103h-22l-47 -103h22z" />
    <glyph glyph-name="backslash" unicode="\" horiz-adv-x="451" 
d="M278 235h-22l44 -98h-26l18 -40h89l22 -48h-90l8 -18h97l13 -29h-17l8 -17h-32l-8 17h-105l-13 29h25l-8 18h-21l-22 48h21l-84 188h-22l-11 24h22l-3 7h19l-29 63h-45l-59 132h45l-8 17h-29l-25 56h32l11 -25h25l-9 20h31l11 -25h-18l3 -7h57l43 -95h-57l29 -66h22
l-14 32h32l136 -301h-33zM267 259l-46 103h-22l46 -103h22z" />
    <glyph glyph-name="percent" unicode="%" horiz-adv-x="513" 
d="M149 117h-33l94 209h-74v-17h-69v17h-27v192h92v28h67v-28h29v-152l23 52h33l-14 -32h22l29 66h-57l43 95h57l3 7h-18l11 25h31l-9 -20h25l11 25h31l-25 -56h-29l-7 -17h45l-59 -132h-46l-28 -63h19l-3 -7h22l-11 -24h-22l-84 -188h21l-22 -48h-21l-8 -18h25l-13 -29
h-105l-8 -17h-32l8 17h-17l13 29h96l8 18h-89l22 48h89l18 40h-26l43 98h-21zM481 18h-92v-27h-67v27h-29v192h92v18h69v-18h27v-192zM373 46h73v78h-45v55h-73v-106h45v-27zM148 491h-73v-79h45v-54h73v105h-45v28zM234 259l47 103h-22l-46 -103h21z" />
    <glyph glyph-name="one" unicode="1" horiz-adv-x="279" 
d="M22 567h209v-38h-31v-50h17v-36h-17v-17h17v-35h-17v-17h17v-36h-17v-102h30v-141h-30v-48h19v-49h-143v49h16v183h-23v29h23v197h10v50h27v23h-55v-21h-38v21h-14v38zM161 89h-32v42h-21v-84h70v241h-17v-199zM178 529h-17v-100h17v100zM108 167h21v38h-21v-38z" />
    <glyph glyph-name="two" unicode="2" horiz-adv-x="452" 
d="M318 448h18l-72 101v-17h-14v-18h30v-29h-16l40 -58h14v21zM351 37v60h33v-60h10v-36h-340v36h17v14h-17v36h17v62h-25v26h17v56h-17v35h17v79h22v-29h30v30h178v72l-46 67h-28v13h-23v-80h-70v58h33v-42h21v64h-70v-80h-36v52h14v28h-18v48h39v15h23v-15h21v15h22v-15
h22v15h67v-5h29l8 -12l27 19l21 -29l-27 -19l11 -15l30 21l20 -29l-30 -21l7 -10v-9h22v-36h-12v-153h-23v-23h-159v57h105v17h-122v-89v-39v-37h-67v-12h61v-36h-61v-14h98v-36h-98v-14h137v20h-11v22h97v-22h-11v-20h35zM284 37v20h-10v-20h10zM94 251v-74h42v74h-42z
M386 238v174h14v-116h18v-35h-18v-23h-14z" />
    <glyph glyph-name="three" unicode="3" horiz-adv-x="431" 
d="M120 570v11h32v-11h118v-10h24v20h32v-26h23v-24h-23v-21h23v-24h-23v-48h34v-25h-9v-25l-61 -92l21 -22h5v18h52v-32h-26v-145h-57v139l-20 20v-3h-209v15h77v15h-81v49h156l74 110l12 -8v13h-65v37h-85v-17h-32v17h-24v13h141v13h-173v43h64zM254 285l-15 15h-50v-15
h65zM261 324l6 -6l62 94h-17l-51 -74v-14zM87 -3h-32v38h18v9h84v17h-108v49h144v-34h17v-32h9v32h17v21h123v151h32v-234h-32v47h-108v-17h87v-29h-15v-18h-31v18h-205v-18z" />
    <glyph glyph-name="four" unicode="4" 
d="M253 14v76h-18v66h-149v-6h-33v61h-23v36h23v43h-23v36h23v30h-23v36h23v59h33v-232h18v258h-55v36h55v19h-55v36h80v-55h14v56h13v-309h-13v217h-14v-285h-19v-9h-24v-13h149v13h-93v36h93v61h18v18h-19v36h19v20h-19v36h19v16h-19v36h19v13h-18v36h31v78h32v-78h12v78
h25v-93h27v-258h67v-13h-67v-13h67v-36h-94v-48h22v-36h-22v-58h46v-14h-169v14h41zM310 14v63h-14v150h14v132h-31v-345h31zM310 455h-31v-12h31v12z" />
    <glyph glyph-name="five" unicode="5" horiz-adv-x="447" 
d="M313 127h-14l-40 -58h15v-29h-29v-17h14v-18l72 102h-18v20zM285 503h-132v-99h13v-35v-89h122v16h-105v57h159v-22h23v-193h12v-35h-22v-9l-7 -10l30 -22l-21 -29l-30 21l-10 -15l27 -19l-21 -29l-27 19l-8 -12h-29v-4h-67v14h-22v-15h-23v15h-21v-15h-22v15h-40v49h19
v27h-14v53h35v-80h71v63h-21v-42h-33v59h70v-80h23v12h27l47 68v111h-178v29h-30v-29h-22v79h-18v36h18v17h-18v24h32v99h-30v13h78v16h-79v39h357v-39h-28v-55h-22v26h-40v-26h-23v26zM153 532v-16h195v16h-195zM104 404h16v99h-16v-99zM131 342v25h-42v-25h42zM395 331
v-37h18v-36h-18v-115h-14v188h14z" />
    <glyph glyph-name="six" unicode="6" 
d="M334 134h-14l-39 -58h15v-29h-30v-18h15v-18l71 102h-18v21zM187 277h122v32h-122v-32zM309 258h-122v-195h49v13h27l46 67v115zM187 349h125v13h74v-217h13v-36h-22v-9l-7 -10l30 -21l-21 -29l-30 21l-10 -15l27 -19l-21 -29l-27 19l-9 -12h-28v-5h-92v15h-22v-15h-23
v15h-21v-15h-22v15h-40v48h19v28h-31v141h31v101h-18v36h18v17h-18v36h18v17h-18v36h23v-14l77 106h5v10h32v-39h23v39h31v-39h24v39h31v-29h79v29h31v-29h6v-19h-7v-82h-15v42h-42v-42h-26v9h-22v33h-108l-27 -37h10v-103zM159 373h-48v-24h48v24zM417 362v-62h17v-36h-17
v-115h-15v213h15zM143 474l-17 13l-25 -35v-28h17v33h33v-3h5l33 45v33h-22v11l-14 -20l17 -14zM118 283h-17v-220h71v64h-21v-42h-33v198zM151 200v-37h21v37h-21z" />
    <glyph glyph-name="seven" unicode="7" horiz-adv-x="375" 
d="M133 9l6 32h-41l3 13h41l7 40h-18l38 189h18l4 19h-20l7 35h20l4 21h-20l7 36h20l3 16h-20l7 36h20l3 13h-19l4 19h-42v-5h-32v5h-43v21h43v30h-63v-56h-32v56h-18v43h53v14h36v-14h250v-43h-194v-30h121l4 18h25l-7 -38h27l-60 -301h-27l-13 -66h21l-7 -36h-21l-4 -22
h45l-3 -13h-45l-6 -32h45l-3 -13h-168l3 13h41zM158 9h31l6 32h-30zM203 81h-13l30 150h13l26 131h-31l-61 -308h31zM278 459h-31l-2 -12h31z" />
    <glyph glyph-name="eight" unicode="8" horiz-adv-x="498" 
d="M412 233h-22v-97h-26v-40h89v-49h-89v-17h96v-29h-17v-18h-32v18h-265v-18h-32v18h-15v29h87v32h32v-32h10v32h52v-32h51v17h-21v49h21v190h-27v-27h-56v5h-71l-25 -25v-139h-57v145h-26v32h53v-18h4l22 22l-61 92v25h-10v24h34v49h-23v24h23v21h-37v24h37v26h33v-20h23
v24h268v-43h-15v-99l18 -11l-74 -109v-7h26v-36h42v-18h12v-132h-32v118zM321 335l36 53h-27v24h29v21h-27v25h27v27h-65v24h65v18h-150v-77h-65v-13l11 8l75 -110h91zM248 286h-50l-7 -7h57v7zM176 324l-50 74h-18l63 -94l5 5v15zM78 0h-32v234h32v-151h89v-36h-89v-47z
" />
    <glyph glyph-name="nine" unicode="9" horiz-adv-x="457" 
d="M139 441h14l40 57h-16v29h30v18h-14v18l-72 -102h18v-20zM286 332h-122v-31h122v31zM164 351h122v160h-48v-13h-27l-47 -67v-80zM286 260h-124v-16l-75 1v184h-12v36h22v9l7 10l-30 21l20 30l31 -22l10 15l-27 19l21 30l27 -19l8 12h29v4h92v-14h22v15h22v-15h21v15h23
v-15h39v-49h-18v-28h30v-141h-30v-101h17v-36h-17v-17h17v-36h-17v-17h17v-36h-22v14l-77 -106h-6v-9h-31v39h-23v-39h-32v39h-23v-39h-32v29h-78v-29h-31v29h-6v18h7v82h14v-42h43v42h25v-9h23v-33h107l27 38h-10v137zM314 201h49v24h-49v-24zM57 245v29h-18v36h18v115h14
v-180h-14zM331 100l16 -13l26 35h-1v28h-17v-32h-32v3h-5l-33 -45v-33h21v-12l15 20l-18 14zM355 291h17v220h-70v-64h21v42h32v-198zM323 374v37h-21v-37h21z" />
    <glyph glyph-name="ellipsis" unicode="&#x2026;" horiz-adv-x="691" 
d="M65 40h70v10h-69v22h22v19h29v-19h18v11h36v-43h14v-39h-120v39zM524 64h23v24h32v-19h19v19h32v-19h15v-28h-70v4h-10v-14h85v-18h-12v-12h-42v12h-31v-12h-41v63zM291 19h16v31h-15v22h30v14h67v-14h28v-22h-20v-24h-31v24h-20v-31h73v-18h-128v18z" />
    <glyph glyph-name="question" unicode="?" 
d="M122 19h16v31h-14v22h29v14h67v-14h29v-22h-21v-24h-30v24h-21v-31h73v-18h-128v18zM265 173h-140v15h15v98h-16v49h156l75 110l11 -8v13h-65v77h-165v-18h83v-24h-83v-27h19v-25h-32v17h-13v-35h-31v35h-17v77h-20v43h301v-24h23v20h32v-26h24v-24h-24v-21h24v-24h-24
v-49h35v-24h-10v-28l-68 -102l-17 2v-6h-77v-54h-55v76h-14v-98h73v-15zM261 279h61l4 7h-65v-7zM400 398h-16l-50 -74v-27z" />
    <glyph glyph-name="exclam" unicode="!" horiz-adv-x="228" 
d="M62 40h69v10h-68v22h22v19h29v-19h17v11h37v-43h14v-39h-120v39zM194 492h-19v-182h-24v-113h25v-24h-115v24h58v16h-58v24h58v237h-22v-222h-40v210h-21v31h21v17h-21v31h21v29h24v19h66v-29h28v-36h19v-32zM97 548v-25h22v19h16v6h-38z" />
    <glyph glyph-name="quotedblright" unicode="&#x201d;" horiz-adv-x="406" 
d="M71 583h40l-3 -14h79l-6 -26h-13l-14 -62h-28l-16 -70h-48l23 96h-32zM296 501l-21 -90h-20l7 31h-22l8 34h22l6 25h-29l13 58h22l5 21h57l-5 -21h37l-13 -58h-21l-21 -90h-27l21 90h-19zM114 517l7 26h-19l-6 -26h18z" />
    <glyph glyph-name="colon" unicode=":" horiz-adv-x="223" 
d="M44 64h23v24h32v-19h19v19h32v-19h15v-28h-70v4h-10v-14h85v-18h-12v-12h-42v12h-31v-12h-41v63zM42 189h16v32h-14v21h29v14h67v-14h29v-21h-20v-24h-31v24h-21v-32h73v-17h-128v17z" />
    <glyph glyph-name="semicolon" unicode=";" horiz-adv-x="224" 
d="M57 189h16v32h-15v21h30v14h67v-14h28v-21h-20v-24h-31v24h-20v-32h72v-17h-127v17zM69 107h41l-4 -14h80l-6 -26h-13l-15 -63h-27l-17 -69h-47l22 95h-32zM113 41l6 26h-19l-6 -26h19z" />
    <glyph glyph-name="quotedbl" unicode="&#x22;" horiz-adv-x="386" 
d="M41 580h40v-14h80v-26h-13v-62h-28v-70h-48v96h-31v76zM285 498v-90h-20v31h-22v34h22v25h-29v58h22v22h56v-22h38v-58h-20v-90h-28v90h-19zM100 514v26h-19v-26h19z" />
    <glyph glyph-name="comma" unicode="," horiz-adv-x="213" 
d="M72 107h40l-3 -14h80l-7 -26h-13l-14 -63h-28l-16 -69h-48l23 95h-32zM116 41l6 26h-19l-6 -26h19z" />
    <glyph glyph-name="hyphen" unicode="-" horiz-adv-x="305" 
d="M126 242v11h-94v48h242v-48h-67v-11h27v-15h-59v-15h-81v15h-18v15h50z" />
    <glyph glyph-name="equal" unicode="=" horiz-adv-x="320" 
d="M134 317v11h-94v48h242v-48h-67v-11h27v-15h-59v-15h-81v15h-17v15h49zM261 189h-42v-14h-81v14h-94v21h89v10h-89v21h48v11h82v-11h112v-21h-46v-10h21v-21z" />
    <glyph glyph-name="plus" unicode="+" horiz-adv-x="371" 
d="M257 226h-32v-95h-49v79h-11v-32h-14v63h-116v21h100v9h-100v22h61v10h39v39h16v20h14v-58h11v109h49v-120h118v-22h-59v-9h27v-21h-54v-15z" />
    <glyph glyph-name="grave" unicode="`" horiz-adv-x="214" 
d="M145 405h-36l-69 165h36l10 -23h17l-10 23h37l50 -121h-36l-15 35h-17z" />
    <glyph glyph-name="numbersign" unicode="#" horiz-adv-x="505" 
d="M147 71h-17v-45h64v-25h-119v25h36v72h-15v-42h-16v96h-47v47h47v86h-44v24h44v25h-60v24h60v102h16v-102h26v24h25v19h-25v25h25v31h-12v25h49v-17h3v-107h17v132h18v-132h95v100h16v-100h26v23h24v19h-24v25h24v29h-11v25h48v-15h3v-104h56v-24h-56v-27h56v-24h-41v-33
h22v-25h-22v-28h46v-47h-61v-110h-40v28h-17v-44h59v-25h-120v25h43v71h-15v-43h-16v98h-130v-109h-40v28zM359 339h7v-161h17v178h-24v-17zM333 334v-25h15v25h-15zM187 334v-24h14v-1h116v25h-130zM130 334v-25h17v25h-17zM96 334v-25h15v25h-15zM317 199v86h-116v-86h116
zM130 285v-106h17v106h-17zM96 285v-50h15v50h-15zM333 234h15v51h-15v-51zM366 142v-11h17v11h-17zM366 106v-11h17v11h-17zM130 132h17v11h-17v-11zM130 96h17v11h-17v-11z" />
    <glyph glyph-name="less" unicode="&#x3c;" horiz-adv-x="279" 
d="M76 292h-30l34 83h-13l36 88h13l37 91h-7l7 15h48l-6 -15h-12l-6 -17h24l-6 -16h-25l-5 -12h25l-7 -16h-24l-47 -114h17l42 103h19l-28 -67h15l59 144h16l-106 -259h-16l11 27h-15l-17 -43l30 -78h21l59 -155h-36l-4 11h-15l-4 12h-20l12 -31h45l3 -9h16l7 -19h-31l-4 9
h-29l8 -22h-36l-43 114h-19l-7 19h18l-5 14h-18l-8 19h19l-29 74h37l53 -138h19l-56 147h-52l-5 15h51zM97 300l4 10h-17l-4 -10h17zM120 356h-17l-3 -7h17zM110 333h-17l-3 -7h17z" />
    <glyph glyph-name="greater" unicode="&#x3e;" horiz-adv-x="294" 
d="M212 266h52l-6 -15h-52l-56 -147h20l53 138h36l-28 -74h18l-7 -19h-19l-5 -14h19l-8 -19h-18l-44 -114h-36l8 22h-29l-3 -9h-32l8 19h15l4 9h45l11 31h-19l-5 -12h-14l-4 -11h-37l60 155h21l30 78l-18 43h-15l11 -27h-16l-105 259h15l59 -144h15l-27 67h18l42 -103h17
l-46 114h-25l-6 16h24l-5 12h-24l-7 16h25l-7 17h-11l-7 15h49l6 -15h-6l37 -91h13l36 -88h-13l33 -83h-30zM218 300l-4 10h-16l3 -10h17zM182 349h17l-3 7h-17zM191 326h17l-3 7h-17z" />
    <glyph glyph-name="asciicircum" unicode="^" horiz-adv-x="355" 
d="M184 523v52l15 -6v-51l113 -44v-50l-68 26v21l-78 30l-43 -18v-15l27 11v-15l-102 -42v49l23 10v17l-23 -10v44l27 11v-13l83 34v-31zM312 494l-104 40v36l74 -28v18l19 -7v-18l11 -5v-36zM149 530l-9 -4v-17l9 4v17zM101 493v17l-7 -3v-17zM124 502v17l-7 -3v-17z" />
    <glyph glyph-name="asterisk" unicode="*" horiz-adv-x="360" 
d="M190 554v-63l49 52l17 -16l-48 -50h50v10h38v-10h29v-38h-80v-23h-25l44 -38l-6 -8h11v-17h-38v17h6l-47 41v-102h-31v102l-45 -48l-10 9l-26 -27l-12 11l45 46l4 -4l32 33h-113v27h18v11h38v-11h57l-56 48l15 17l53 -46v77h-14v17h59v-17h-14z" />
    <glyph glyph-name="parenleft" unicode="(" horiz-adv-x="310" 
d="M264 616h-123l-70 -110v-12h9v20h17l51 81l16 -10h100v-15h-85l-35 -55h19v-29h-26v-15h26v-9h10v-259h23v-29h-23v-123h-15v24h-21v-26l34 -49h96v-14h-86l9 -12h85v-29h-143v4l-54 76h-12v73h-18v282h18v43h-18v36h18v17h-18v35h6l67 106v37h143v-38zM138 -26h26
l-43 59h-17v340h-17v-328zM137 149v-38h21v38h-21z" />
    <glyph glyph-name="parenright" unicode=")" horiz-adv-x="320" 
d="M60 654h143v-37l67 -106h7v-35h-18v-17h18v-36h-18v-43h18v-282h-18v-73h-12l-54 -76v-4h-144v29h85l9 12h-85v14h95l35 49v26h-21v-24h-16v123h-22v29h22v259h11v9h26v15h-27v29h20l-35 55h-86v15h101l16 10l50 -81h17v-20h10v12l-70 110h-124v38zM237 45v328h-17v-340
h-16l-43 -59h26zM167 149v-38h21v38h-21z" />
    <glyph glyph-name="bracketleft" unicode="[" horiz-adv-x="315" 
d="M75 -30v29h-41v13h41v85h-18v189h18v19h-20v36h20v20h-20v36h20v16h-20v36h20v13h-19v36h75v27h-75v36h75v34h-75v36h202v-36h-101v-34h21v-36h-21v-43h27v-300h-27v-67h21v-36h-21v-67h45v-13h-45v-29h101v-36h-202v36h19zM131 -30v29h-31v-29h31zM131 12v72h-13v150h13
v132h-31v-354h31zM131 462h-31v-12h31v12z" />
    <glyph glyph-name="bracketright" unicode="]" horiz-adv-x="310" 
d="M252 -30v-36h-202v36h102v29h-45v13h45v67h-21v36h21v67h-27v300h27v43h-22v36h22v34h-102v36h202v-36h-75v-34h75v-36h-75v-27h75v-36h-18v-13h19v-36h-19v-16h19v-36h-19v-20h19v-36h-19v-19h18v-189h-18v-85h41v-13h-41v-29h18zM208 -30v29h-31v-29h31zM208 12v354
h-31v-132h14v-150h-14v-72h31zM177 450h31v12h-31v-12z" />
    <glyph glyph-name="braceleft" unicode="{" horiz-adv-x="258" 
d="M237 -55h-143v37l-67 106h-6v36h18v17h-18v36h18v43h-18v60h39v-54h17v71h36v44h-36v225h17l43 60h-26l-51 -71v-178h-39v124h18v73h12l54 76v4h143v-28h-85l-9 -13h86v-14h-96l-34 -49v-26h21v24h15v-123h23v-28h-23v-44h93v-20h-93v-14h93v-47h-93v-134h-10v-9h-26v-16
h26v-28h-19l35 -56h85v-14h-100l-16 -10l-51 81h-17v19h-9v-12l70 -110h123v-38zM131 450v38h-21v-38h21z" />
    <glyph glyph-name="braceright" unicode="}" horiz-adv-x="258" 
d="M21 -17h124l70 110v12h-10v-19h-17l-50 -81l-16 10h-101v14h86l35 56h-20v28h27v16h-26v9h-11v134h-93v47h93v14h-93v20h93v44h-22v28h22v123h16v-24h21v26l-35 49h-95v14h85l-9 13h-85v28h144v-4l54 -76h12v-73h17v-124h-39v178l-50 71h-26l43 -60h16v-225h-35v-44h35
v-71h17v54h39v-60h-17v-43h18v-36h-18v-17h18v-36h-7l-67 -106v-37h-143v38zM149 450v38h-21v-38h21z" />
    <glyph glyph-name="quotesingle" unicode="'" horiz-adv-x="203" 
d="M46 580h40v-14h80v-26h-13v-62h-28v-70h-48v96h-31v76zM105 514v26h-19v-26h19z" />
    <glyph glyph-name="period" unicode="." horiz-adv-x="248" 
d="M62 64h23v24h32v-19h19v19h32v-19h15v-28h-70v4h-10v-14h85v-18h-12v-12h-42v12h-31v-12h-41v63z" />
    <glyph glyph-name="zero" unicode="0" horiz-adv-x="453" 
d="M133 448h14l40 58h-16v29h30v18h-14v17l-72 -101h18v-21zM308 208h49v25h-49v-25zM69 473h22v9l7 10l-30 21l20 29l30 -21l11 15l-27 19l20 29l27 -19l9 12h29v5h91v-15h22v15h23v-15h21v15h23v-15h39v-48h-18v-28h30v-141h-30v-102h17v-35h-17v-17h17v-36h-17v-17h17
v-36h-23v14l-77 -106h-5v-10h-31v39h-24v-39h-31v39h-23v-39h-32v29h-78v-29h-32v29h-5v19h7v229h-18v35h18v116h14v-340h43v63h-27v281h-12v36zM158 439v-174h-25v-31h23v-36h-23v-21h23v-35h-23v-17h23v-32h107l27 37h-10v389h-48v-13h-28zM325 108l16 -13l26 35h-1v28
h-17v-33h-32v3h-6l-33 -45v-33h22v-11l15 20l-18 14zM349 298h17v221h-70v-64h21v42h32v-199zM317 381v38h-21v-38h21z" />
    <glyph glyph-name="underscore" unicode="_" horiz-adv-x="457" 
d="M141 15v11h-94v48h375v-48h-200v-11h160v-15h-192v-15h-81v15h-18v15h50z" />
    <glyph glyph-name="asciitilde" unicode="~" horiz-adv-x="296" 
d="M130 244l-52 25l-56 -16v48l58 21l109 -54l23 10l52 23v-48l-59 -23v-11h27v-15h-64l-1 21h-50l1 -14l-19 -1v34h31z" />
    <glyph glyph-name="Euro" unicode="&#x20ac;" horiz-adv-x="446" 
d="M48 329h37v22l-6 4l115 148l14 -10l-2 -2h147v31h32v-39h10v-15h-20v-8l-17 -18h-13v-27h-17v27h-106l-6 -8h98v-19h-110v3l-26 -33h18v18h31v-36h-25v-37h118v-28h-118v-13h128v-19h-128v-52h120v-25h-120v-11h120v-24h-120v-87h-40v156h-38v76h38v13h-20v37l-14 11
l64 83v25l-93 -119h1v-303h13v12h20v23h-19v36h19v14h-19v36h19v36h18v-145h197v-29h-62v-11h78v35h31v-62h-31v12h-95v-9h-50v9h-13v-9h-31v9h-13v-9h-32v9h-17v7h-13v-12h-15v170h-35v43h35v50h-37v64zM228 22v11h-33v-11h33z" />
    <glyph glyph-name="quotedblleft" unicode="&#x201c;" horiz-adv-x="416" 
d="M354 405h-40l3 14h-79l6 26h13l14 62h28l16 70h48l-23 -96h32zM129 487l21 90h20l-7 -31h22l-8 -34h-22l-6 -25h29l-13 -58h-22l-5 -21h-57l5 21h-37l13 58h21l21 90h27l-21 -90h19zM311 471l-7 -26h19l6 26h-18z" />
    <glyph glyph-name="quoteleft" unicode="&#x2018;" horiz-adv-x="229" 
d="M166 405h-40l3 14h-79l6 26h13l14 62h28l16 70h48l-23 -96h32zM123 471l-7 -26h19l6 26h-18z" />
    <glyph glyph-name="quoteright" unicode="&#x2019;" horiz-adv-x="213" 
d="M71 583h40l-3 -14h79l-6 -26h-13l-14 -62h-28l-16 -70h-48l23 96h-32zM114 517l7 26h-19l-6 -26h18z" />
    <glyph glyph-name="trademark" unicode="&#x2122;" horiz-adv-x="670" 
d="M55 501h7v23h16v-23h8v19h17v-19h12v19h16v-19h9v19h17v-19h9v11h12v-11h51v10h16v-10h7v-26h-7v-23h-16v23h-42v-17h-9v-9h9v-19h-9v-9h9v-19h-9v-53h16v-75h-16v-13h16v-15h-16v-8h24v-19h-47v19h11v8h-37v-8h15v-19h-35v19h12v227h6v10h-49v-29h-16v29h-7v26zM157 270
h-17v23h-11v-32h37v114h-9v-105zM166 475h-9v-25h9v25zM129 312h11v20h-11v-20zM339 244h-9v33h-14v159h14v55h-28v-257h37v10zM424 279h16v-19h-16v-14h28v54h-14v133h17v-13h7l8 8l-8 7l23 27l8 -7l7 9l-7 7l28 32l7 -7l12 14h-3v7h82v-7h-12v-24h-11v-11h11v-19h-11v-36
h14v-159h-14v-27h19v-15h-74v15h11v19h-10v19h10v7h-10v19h10v9h-10v19h10v10h-10v19h10v10h-10v86l-64 -73v-20h-13v-16h12v-19h-12v-11h12v-19h-12v-9h12v-18h-12v-20h19v-1h12v-24h-17v15h-41v-15h-17v15h-4v131h-12v18h12v13l-23 22l-7 -7l-13 14l7 7l-26 25v-7h-12v-8
h12v-19h-12v-11h12v-19h-12v-16h13v-145h10v-15h-81v15h10v117h-12v19h12v108h-13v19h13v4h4v15h17v-15h27v15h17v-5l73 -74l-9 -9v-25v-124zM476 400l28 32l-5 5l-31 -37h8zM517 447l35 40v11l-40 -47zM417 429l-61 62h-13v-7l74 -73v18zM582 253h-17v-19h17v19zM582 510
h-17v-187h17v70h-7v79h7v38zM582 279h-17v-7h17v7z" />
    <glyph glyph-name="b" unicode="b" 
d="M66 25v160h-20v32h20v21h-20v31h20v120h40v-223h22v237h-57v24h57v16h-57v10h-19v34h297v-9h20v-12h23v-32h-23v-7h23v-31h-23v-12h21v-49h-28l-23 -47h33v-30h43v-31h-7v-226h-32v126h-16v-126l-307 -1v25h13zM328 192h-144v-111h-40v17h-16v19h-22v-49h50v-32h-50v-11
h70v28h35v-28h32v28h35v-28h50v167zM184 207h144v20h-144v-20zM202 258v21h35v-21h59l4 7v188h-96v-10h-43v-113h23v-72h18zM344 431h-20v-117l11 21v49h9v47zM376 159v68h-16v-68h16z" />
    <glyph glyph-name="A" unicode="A" horiz-adv-x="477" 
d="M357 76h79v-28h-97v-21h97v-29h-148v29h18v246h-11v-16h-71v16h-15v14h97v11h-123v-40h22v-29h-22v-183h16v-48h-144v48h20v49h-31v140h31v102h-18v36h18v17h-18v36h6l75 117l24 -9v32h32v-32h23v32h32v-32h28v32h32v-22h75v22h31v-14h8v-18h11v-49h-11v-181h22v-36h-22
v-156h-14v373h-52v-55h26v-301h-26v-53zM146 400v-15h26v-9h11v-30h148v62h-22v36h22v16h-22v25h-121l-35 -56h20v-29h-27zM134 505l-54 -85v-11h9v19h17l36 57h-8v20zM113 287h-16v-241h70v85h-21v-43h-33v199zM167 166v38h-21v-38h21z" />
    <glyph glyph-name="a" unicode="a" horiz-adv-x="442" 
d="M296 42v129h-14v31h-80v14h80v11h-33v22h-28v-22h-56v22h-9v-149h-26v51h-17v-71h25v-25h-25v-30h41v-25h-100v25h41v19h-29v11h-23v25h23v21h-25v24h25v25h-9v215h19v-166h19v181l-14 11l6 9l-15 11l14 20l16 -12l11 14l-16 12l14 19l16 -11l15 19v17h68v13h49v-13h30
v13h49v-13h42v-31h13v-404h-16v42h-16v-71h43v-25h-119v25h58v45h-17v-28h-30zM156 375v-73h126v6h14v133h-14v-90h-18v90h-104l-47 -62v-18h17v27h15v9h26v-22h-15zM282 273h-126v-9h126v9zM113 336v-47h17v47h-17zM377 441h-51v-17h25v-25h-25v-19h25v-24h-25v-179h17v161
h18v-105h16v208zM326 141v-11h17v11h-17zM326 105v-11h17v11h-17z" />
    <glyph glyph-name="B" unicode="B" horiz-adv-x="498" 
d="M61 115v301h32v-301h-32zM257 263v-5h-56v27h-27v-190h22v-48h-22v-18h51v32h53v-32h9v32h32v-32h87v-29h-15v-18h-31v18h-266v-18h-32v18h-17v29h97v18h-90v48h90v40h-27v314h-57v77h-20v43h300v-24h24v20h32v-26h23v-24h-23v-20h23v-25h-23v-48h34v-25h-9v-25l-61 -92
l21 -22h5v18h52v-31h-26v-146h-57v139l-24 25h-72zM314 278l-7 7h-50v-7h57zM335 303l62 94h-17l-51 -74v-14zM338 47v35h89v152h32v-234h-32v47h-89zM155 484v-27h18v-24h-18v-22h20v-24h-20v-53h120l75 110l12 -8v13h-65v77h-142v-18h59v-24h-59z" />
    </font>
</defs>
</svg>
