<?xml version="1.0" encoding="utf-8"?>
<!-- Generator: Adobe Illustrator 22.1.0, SVG Export Plug-In . SVG Version: 6.00 Build 0)  -->
<!DOCTYPE svg PUBLIC "-//W3C//DTD SVG 1.1//EN" "http://www.w3.org/Graphics/SVG/1.1/DTD/svg11.dtd">
<svg version="1.1" id="Layer_1" opacity="0.5" xmlns="http://www.w3.org/2000/svg" xmlns:xlink="http://www.w3.org/1999/xlink"
	 x="0px" y="0px" viewBox="0 0 425 200" style="enable-background:new 0 0 425 200;" xml:space="preserve">
<g>
	<path d="M36.52,130.86H22.57c-1.38,0-2.38-0.32-3.01-0.95c-0.63-0.63-0.95-1.64-0.95-3.01V85.48H6.81c-1.38,0-2.38-0.31-3.01-0.95
		c-0.63-0.63-0.95-1.64-0.95-3.01V71.1c0-0.75,0.1-1.38,0.3-1.9c0.2-0.52,0.5-0.95,0.9-1.29l11.11-9.39
		c0.29-0.23,0.67-0.42,1.16-0.56c0.49-0.14,1.02-0.22,1.59-0.22h45.47c1.38,0,2.38,0.32,3.01,0.95c0.63,0.63,0.95,1.64,0.95,3.01
		v10.42c0,0.75-0.1,1.38-0.3,1.89c-0.2,0.52-0.5,0.95-0.9,1.29l-11.2,9.3c-0.23,0.23-0.59,0.43-1.08,0.6
		c-0.49,0.17-1.02,0.26-1.59,0.26h-0.69v32.04c0,0.75-0.1,1.38-0.3,1.89c-0.2,0.52-0.5,0.95-0.9,1.29l-11.2,9.3
		c-0.23,0.23-0.59,0.43-1.08,0.6C37.62,130.78,37.09,130.86,36.52,130.86z M47.63,120.62c1.09,0,1.88-0.24,2.37-0.73
		c0.49-0.49,0.73-1.28,0.73-2.37V75.23h12.66c1.09,0,1.88-0.24,2.37-0.73c0.49-0.49,0.73-1.28,0.73-2.37V61.71
		c0-1.09-0.25-1.88-0.73-2.37c-0.49-0.49-1.28-0.73-2.37-0.73H17.92c-1.09,0-1.88,0.24-2.37,0.73c-0.49,0.49-0.73,1.28-0.73,2.37
		v10.42c0,1.09,0.24,1.88,0.73,2.37c0.49,0.49,1.28,0.73,2.37,0.73h12.66v42.28c0,1.09,0.24,1.88,0.73,2.37
		c0.49,0.49,1.28,0.73,2.37,0.73H47.63z M40.22,112.86V67.22H22.57v-0.86h36.17v0.86H41.08v45.64H40.22z"/>
	<path d="M115.4,130.86H75.44c-1.38,0-2.38-0.32-3.01-0.95c-0.63-0.63-0.95-1.64-0.95-3.01V71.1c0-0.75,0.1-1.38,0.3-1.9
		c0.2-0.52,0.5-0.95,0.9-1.29l11.11-9.39c0.29-0.23,0.67-0.42,1.16-0.56c0.49-0.14,1.02-0.22,1.59-0.22h39.96
		c1.38,0,2.38,0.32,3.01,0.95c0.63,0.63,0.95,1.64,0.95,3.01v10.08c0,0.75-0.1,1.38-0.3,1.9c-0.2,0.52-0.5,0.95-0.9,1.29l-7.41,6.11
		c0.57,0.29,0.99,0.72,1.25,1.29c0.26,0.57,0.39,1.32,0.39,2.24v9.21c0,0.75-0.1,1.38-0.3,1.89c-0.2,0.52-0.5,0.95-0.9,1.29
		l-7.66,6.46h11.88c1.38,0,2.38,0.32,3.01,0.95c0.63,0.63,0.95,1.64,0.95,3.01v10.08c0,0.75-0.1,1.38-0.3,1.89
		c-0.2,0.52-0.5,0.95-0.9,1.29l-11.2,9.3c-0.23,0.23-0.59,0.43-1.08,0.6C116.51,130.78,115.98,130.86,115.4,130.86z M126.51,120.62
		c1.09,0,1.88-0.24,2.37-0.73c0.49-0.49,0.73-1.28,0.73-2.37v-10.08c0-1.09-0.24-1.88-0.73-2.37c-0.49-0.49-1.28-0.73-2.37-0.73
		h-23.77v-7.41h16.79c1.09,0,1.88-0.24,2.37-0.73c0.49-0.49,0.73-1.28,0.73-2.37v-9.21c0-1.09-0.24-1.88-0.73-2.37
		c-0.49-0.49-1.28-0.73-2.37-0.73h-16.79v-6.63h23.77c1.09,0,1.88-0.24,2.37-0.73c0.49-0.49,0.73-1.28,0.73-2.37V61.71
		c0-1.09-0.24-1.88-0.73-2.37c-0.49-0.49-1.28-0.73-2.37-0.73H86.55c-1.09,0-1.88,0.24-2.37,0.73c-0.49,0.49-0.73,1.28-0.73,2.37
		v55.8c0,1.09,0.24,1.88,0.73,2.37c0.49,0.49,1.28,0.73,2.37,0.73H126.51z M121.86,112v0.86H92.84v-46.5h29.02v0.86H93.7v21.62
		h21.19v0.86H93.7V112H121.86z"/>
	<path d="M167.5,120.7l-11.2,9.3c-0.23,0.23-0.59,0.43-1.08,0.6c-0.49,0.17-1.02,0.26-1.59,0.26h-13.26c-1.38,0-2.38-0.32-3.01-0.95
		c-0.63-0.63-0.95-1.64-0.95-3.01V71.1c0-0.75,0.1-1.38,0.3-1.9c0.2-0.52,0.5-0.95,0.9-1.29l11.11-9.39
		c0.29-0.23,0.67-0.42,1.16-0.56c0.49-0.14,1.02-0.22,1.59-0.22h28.68c6.83,0,11.51,1.42,14.04,4.26c2.53,2.84,3.79,6.5,3.79,10.98
		v3.96c0,2.12-0.26,3.98-0.77,5.55c-0.52,1.58-1.35,2.86-2.5,3.83h-0.09c2.7,0.75,4.87,2.24,6.5,4.48c1.64,2.24,2.45,5.05,2.45,8.44
		v18.26c0,0.75-0.1,1.38-0.3,1.89c-0.2,0.52-0.5,0.95-0.9,1.29l-11.2,9.3c-0.23,0.23-0.59,0.43-1.08,0.6
		c-0.49,0.17-1.02,0.26-1.59,0.26h-13.35c-1.38,0-2.38-0.32-3.01-0.95c-0.63-0.63-0.95-1.64-0.95-3.01v-13.18
		c0-0.92-0.17-1.62-0.52-2.11c-0.34-0.49-0.98-0.73-1.89-0.73h-0.09v6.63c0,0.75-0.1,1.38-0.3,1.89
		C168.21,119.93,167.91,120.36,167.5,120.7z M164.75,120.62c1.09,0,1.88-0.24,2.37-0.73c0.49-0.49,0.73-1.28,0.73-2.37v-16.88h12.06
		c1.21,0,2.05,0.3,2.54,0.9c0.49,0.6,0.73,1.54,0.73,2.8v13.18c0,1.09,0.24,1.88,0.73,2.37c0.49,0.49,1.28,0.73,2.37,0.73h13.35
		c1.09,0,1.88-0.24,2.37-0.73c0.49-0.49,0.73-1.28,0.73-2.37V99.26c0-3.62-0.96-6.52-2.89-8.7c-1.92-2.18-4.44-3.44-7.54-3.79
		c1.78-0.75,3.03-1.97,3.75-3.66c0.72-1.69,1.08-3.75,1.08-6.16v-3.96c0-4.25-1.22-7.71-3.66-10.38c-2.44-2.67-6.88-4-13.31-4
		h-28.68c-1.09,0-1.88,0.24-2.37,0.73c-0.49,0.49-0.73,1.28-0.73,2.37v55.8c0,1.09,0.24,1.88,0.73,2.37
		c0.49,0.49,1.28,0.73,2.37,0.73H164.75z M158.55,112.86h-0.86v-46.5h19.64c3.33,0,5.8,0.93,7.41,2.8c1.61,1.87,2.41,4.21,2.41,7.02
		v5.94c0,2.64-0.34,4.81-1.03,6.5c-0.69,1.69-2.07,2.86-4.13,3.49h0.95c3.5,0,6.11,0.79,7.84,2.37c1.72,1.58,2.58,3.86,2.58,6.85
		v11.54h-0.86v-11.54c0-2.81-0.77-4.92-2.33-6.33c-1.55-1.41-3.96-2.11-7.23-2.11h-24.37V112.86z M177.32,67.22h-18.77v24.89h18.77
		c3.56,0,5.94-0.86,7.15-2.58s1.81-4.16,1.81-7.32v-6.03c0-2.64-0.73-4.79-2.2-6.46C182.62,68.05,180.36,67.22,177.32,67.22z
		 M167.85,74.11h6.46c1.49,0,2.5,0.39,3.01,1.16c0.52,0.77,0.77,1.74,0.77,2.88v2.93c0,1.15-0.26,2.11-0.77,2.88
		s-1.52,1.16-3.01,1.16h-6.46V74.11z"/>
	<path d="M239.67,120.7l-11.2,9.3c-0.23,0.23-0.59,0.43-1.08,0.6c-0.49,0.17-1.02,0.26-1.59,0.26h-12.83
		c-1.38,0-2.38-0.32-3.01-0.95c-0.63-0.63-0.95-1.64-0.95-3.01V71.1c0-0.75,0.1-1.38,0.3-1.9c0.2-0.52,0.5-0.95,0.9-1.29l11.11-9.39
		c0.29-0.23,0.67-0.42,1.16-0.56c0.49-0.14,1.02-0.22,1.59-0.22h13.87c1.09,0,1.99,0.23,2.71,0.69c0.72,0.46,1.39,1.24,2.02,2.33
		l5.86,10.76l0.78-1.38c0.23-0.4,0.47-0.79,0.73-1.16c0.26-0.37,0.53-0.67,0.82-0.9l11.11-9.3c0.46-0.34,0.93-0.6,1.42-0.77
		c0.49-0.17,1.08-0.26,1.77-0.26h13.95c1.38,0,2.38,0.32,3.01,0.95c0.63,0.63,0.95,1.64,0.95,3.01v55.8c0,0.75-0.1,1.38-0.3,1.89
		c-0.2,0.52-0.5,0.95-0.9,1.29l-11.2,9.3c-0.23,0.23-0.59,0.43-1.08,0.6c-0.49,0.17-1.02,0.26-1.59,0.26h-13.26
		c-1.44,0-2.46-0.32-3.06-0.95c-0.6-0.63-0.9-1.64-0.9-3.01v-22.74l-5.08,4.22c-0.46,0.4-0.99,0.7-1.59,0.9
		c-0.6,0.2-1.31,0.3-2.11,0.3h-1.12v7.92c0,0.75-0.1,1.38-0.3,1.89C240.37,119.93,240.07,120.36,239.67,120.7z M236.91,120.62
		c1.09,0,1.88-0.24,2.37-0.73c0.49-0.49,0.73-1.28,0.73-2.37V87.2l5.08,9.39c0.52,0.98,1.13,1.68,1.85,2.11
		c0.72,0.43,1.62,0.65,2.71,0.65h3.45c1.09,0,1.99-0.22,2.71-0.65c0.72-0.43,1.33-1.13,1.85-2.11l5.08-9.39v30.31
		c0,1.09,0.24,1.88,0.73,2.37c0.49,0.49,1.28,0.73,2.37,0.73h13.26c1.09,0,1.88-0.24,2.37-0.73c0.49-0.49,0.73-1.28,0.73-2.37v-55.8
		c0-1.09-0.24-1.88-0.73-2.37c-0.49-0.49-1.28-0.73-2.37-0.73h-13.95c-0.92,0-1.68,0.2-2.28,0.6c-0.6,0.4-1.16,1.06-1.68,1.98
		l-7.67,14.04c-0.29,0.52-0.53,0.89-0.73,1.12c-0.2,0.23-0.47,0.34-0.82,0.34h-0.78c-0.34,0-0.62-0.11-0.82-0.34
		c-0.2-0.23-0.45-0.6-0.73-1.12l-7.75-14.04c-0.52-0.92-1.08-1.58-1.68-1.98c-0.6-0.4-1.37-0.6-2.28-0.6h-13.87
		c-1.09,0-1.88,0.24-2.37,0.73c-0.49,0.49-0.73,1.28-0.73,2.37v55.8c0,1.09,0.24,1.88,0.73,2.37c0.49,0.49,1.28,0.73,2.37,0.73
		H236.91z M251.3,87.46c1.03,0,1.78-0.23,2.24-0.69c0.46-0.46,1.18-1.43,2.15-2.93l10.51-16.02c0.34-0.57,0.73-0.96,1.16-1.16
		c0.43-0.2,0.88-0.3,1.34-0.3h1.46c0.8,0,1.39,0.22,1.77,0.65s0.56,1.11,0.56,2.02v43.83h-0.86V69.03c0-0.46-0.1-0.88-0.3-1.25
		c-0.2-0.37-0.59-0.56-1.16-0.56h-1.29c-0.4,0-0.75,0.06-1.03,0.17c-0.29,0.12-0.6,0.46-0.95,1.03l-10.51,15.85
		c-1.03,1.55-1.82,2.61-2.37,3.19c-0.55,0.57-1.45,0.86-2.71,0.86c-1.26,0-2.17-0.29-2.71-0.86c-0.55-0.57-1.33-1.64-2.37-3.19
		l-10.51-15.85c-0.34-0.57-0.68-0.92-0.99-1.03c-0.32-0.11-0.68-0.17-1.08-0.17h-1.29c-0.58,0-0.95,0.19-1.12,0.56
		c-0.17,0.37-0.26,0.79-0.26,1.25v43.83h-0.86V69.03c0-0.92,0.19-1.59,0.56-2.02c0.37-0.43,0.93-0.65,1.68-0.65h1.46
		c0.46,0,0.92,0.1,1.38,0.3c0.46,0.2,0.86,0.59,1.21,1.16l10.51,16.02c0.98,1.49,1.69,2.47,2.15,2.93
		C249.52,87.23,250.26,87.46,251.3,87.46z"/>
	<path d="M339.83,126.73c-2.01,1.72-4.82,3.06-8.44,4s-8.27,1.42-13.95,1.42c-5.63,0-10.23-0.59-13.82-1.77
		c-3.59-1.18-6.4-2.74-8.44-4.69c-2.04-1.95-3.45-4.19-4.22-6.72c-0.78-2.53-1.16-5.14-1.16-7.84V84.36c0-2.64,0.37-5.09,1.12-7.36
		c0.75-2.27,2.09-4.21,4.05-5.81l11.2-9.3c2.01-1.72,4.81-3.06,8.4-4c3.59-0.95,8.25-1.42,13.99-1.42c5.63,0,10.23,0.46,13.82,1.38
		c3.59,0.92,6.4,2.2,8.44,3.83c2.04,1.64,3.43,3.59,4.18,5.86c0.75,2.27,1.12,4.75,1.12,7.45v29.37c0,2.64-0.37,5.08-1.12,7.32
		c-0.75,2.24-2.1,4.16-4.05,5.77L339.83,126.73z M355.24,104.34V74.97c0-2.64-0.39-5.04-1.16-7.19c-0.78-2.15-2.15-4-4.13-5.55
		c-1.98-1.55-4.71-2.76-8.18-3.62c-3.47-0.86-7.88-1.29-13.22-1.29c-5.34,0-9.76,0.43-13.26,1.29c-3.5,0.86-6.24,2.07-8.22,3.62
		c-1.98,1.55-3.36,3.4-4.13,5.55c-0.78,2.15-1.16,4.55-1.16,7.19v29.37c0,2.64,0.39,5.04,1.16,7.19c0.77,2.15,2.15,3.99,4.13,5.51
		c1.98,1.52,4.72,2.71,8.22,3.57s7.92,1.29,13.26,1.29c5.34,0,9.75-0.43,13.22-1.29s6.2-2.05,8.18-3.57
		c1.98-1.52,3.36-3.36,4.13-5.51C354.85,109.38,355.24,106.98,355.24,104.34z M345.85,102.36c0,3.44-1.24,6.24-3.7,8.4
		c-2.47,2.15-7.06,3.23-13.78,3.23c-6.72,0-11.28-1.08-13.69-3.23c-2.41-2.15-3.62-4.95-3.62-8.4V76.95c0-3.44,1.21-6.24,3.62-8.4
		c2.41-2.15,6.98-3.23,13.69-3.23c6.72,0,11.31,1.08,13.78,3.23c2.47,2.15,3.7,4.95,3.7,8.4V102.36z M311.92,102.36
		c0,3.22,1.15,5.81,3.44,7.79c2.3,1.98,6.63,2.97,13,2.97c6.37,0,10.74-0.99,13.09-2.97c2.35-1.98,3.53-4.58,3.53-7.79V76.95
		c0-3.21-1.18-5.81-3.53-7.79c-2.36-1.98-6.72-2.97-13.09-2.97c-6.37,0-10.71,0.99-13,2.97c-2.3,1.98-3.44,4.58-3.44,7.79V102.36z
		 M321.31,101.24V78.07c0-1.09,0.43-2.02,1.29-2.8c0.86-0.78,2.84-1.16,5.94-1.16s5.08,0.39,5.94,1.16c0.86,0.77,1.29,1.71,1.29,2.8
		v23.17c0,1.15-0.43,2.11-1.29,2.89c-0.86,0.77-2.84,1.16-5.94,1.16s-5.08-0.39-5.94-1.16
		C321.74,103.35,321.31,102.39,321.31,101.24z M322.17,101.24c0,0.58,0.11,1.08,0.34,1.51c0.23,0.43,0.66,0.79,1.29,1.08V87.46
		c0-0.57-0.12-1.08-0.34-1.51c-0.23-0.43-0.66-0.76-1.29-0.99V101.24z"/>
	<path d="M365.23,130.86c-1.38,0-2.38-0.32-3.01-0.95c-0.63-0.63-0.95-1.64-0.95-3.01v-10.08c0-0.75,0.1-1.38,0.3-1.89
		c0.2-0.52,0.5-0.95,0.9-1.29l8.61-7.23c-3.04-0.92-5.44-2.48-7.19-4.69c-1.75-2.21-2.63-5.38-2.63-9.52v-9.04
		c0-2.58,0.43-4.88,1.29-6.89c0.86-2.01,2.09-3.7,3.7-5.08l11.2-9.39c1.55-1.26,3.47-2.25,5.77-2.97c2.3-0.72,4.91-1.08,7.84-1.08
		h24.11c1.38,0,2.38,0.32,3.01,0.95c0.63,0.63,0.95,1.64,0.95,3.01v10.25c0,0.75-0.1,1.38-0.3,1.89c-0.2,0.52-0.5,0.95-0.9,1.29
		l-7.75,6.46c3.62,0.8,6.53,2.31,8.74,4.52c2.21,2.21,3.32,5.64,3.32,10.29v9.04c0,2.58-0.43,4.88-1.29,6.89
		c-0.86,2.01-2.13,3.7-3.79,5.08l-11.11,9.3c-1.61,1.32-3.56,2.34-5.86,3.06c-2.3,0.72-4.88,1.08-7.75,1.08H365.23z M403.55,120.62
		c5.51,0,9.86-1.31,13.05-3.92s4.78-6.36,4.78-11.24v-9.04c0-4.82-1.24-8.27-3.7-10.33c-2.47-2.07-5.71-3.39-9.73-3.96l-12.83-1.72
		c-0.75-0.06-1.32-0.34-1.72-0.86c-0.4-0.52-0.6-1.15-0.6-1.89c0-0.75,0.2-1.36,0.6-1.85c0.4-0.49,0.98-0.73,1.72-0.73h20.07
		c1.09,0,1.88-0.24,2.37-0.73c0.49-0.49,0.73-1.28,0.73-2.37V61.71c0-1.09-0.25-1.88-0.73-2.37c-0.49-0.49-1.28-0.73-2.37-0.73
		h-24.11c-5.57,0-9.93,1.31-13.09,3.92c-3.16,2.61-4.74,6.36-4.74,11.24v9.04c0,4.82,1.22,8.27,3.66,10.33
		c2.44,2.07,5.67,3.39,9.69,3.96l12.92,1.81c0.75,0.06,1.31,0.32,1.68,0.78c0.37,0.46,0.56,1.18,0.56,2.15
		c0,0.69-0.19,1.28-0.56,1.77c-0.37,0.49-0.93,0.73-1.68,0.73h-23.17c-1.09,0-1.88,0.25-2.37,0.73c-0.49,0.49-0.73,1.28-0.73,2.37
		v10.08c0,1.09,0.24,1.88,0.73,2.37c0.49,0.49,1.28,0.73,2.37,0.73H403.55z M410.53,66.36v0.86h-19.12c-2.41,0-4.34,0.66-5.77,1.98
		c-1.44,1.32-2.15,2.99-2.15,5v7.06c0,2.01,0.4,3.42,1.21,4.22c0.8,0.8,1.86,1.32,3.19,1.55l18.17,3.7
		c1.72,0.34,3.14,1.09,4.26,2.24c1.12,1.15,1.68,3.22,1.68,6.2v5c0,2.53-0.86,4.61-2.58,6.24c-1.72,1.64-4.05,2.45-6.98,2.45h-21.44
		V112h21.44c2.64,0,4.75-0.73,6.33-2.2s2.37-3.34,2.37-5.64v-5c0-2.7-0.47-4.55-1.42-5.55c-0.95-1-2.23-1.68-3.83-2.02l-18.17-3.7
		c-1.49-0.29-2.71-0.87-3.66-1.77c-0.95-0.89-1.42-2.51-1.42-4.87V74.2c0-2.3,0.8-4.18,2.41-5.64c1.61-1.46,3.73-2.2,6.37-2.2
		H410.53z"/>
</g>
</svg>
