<svg width="21.33332" height="15.999998pt" viewBox="0 0 5.6444409 5.6444439" xmlns="http://www.w3.org/2000/svg"><path style="fill:#000;fill-opacity:1;stroke-width:.401138" d="M8.4666668 17.638717a1.0583327 1.0583327 0 0 0-1.0583333 1.058333 1.0583327 1.0583327 0 0 0 .0640787.355017A1.0583327 1.0583327 0 0 0 7.4083335 19.05a1.0583327 1.0583327 0 0 0-1.0583334 1.058334 1.0583327 1.0583327 0 0 0 1.0583334 1.058333 1.0583327 1.0583327 0 0 0 1.0583333-1.058333 1.0583327 1.0583327 0 0 0 1.0583334 1.058333 1.0583327 1.0583327 0 0 0 1.0583338-1.058333A1.0583327 1.0583327 0 0 0 9.5250002 19.05a1.0583327 1.0583327 0 0 0-.065112.0047 1.0583327 1.0583327 0 0 0 .065112-.357601 1.0583327 1.0583327 0 0 0-1.0583334-1.058333Z" transform="translate(-5.644445 -16.933247)"/><path style="fill:#000;fill-opacity:1;stroke-width:.277" d="M6.2057433 21.212796H5.0721211l.5668111-.981745z" transform="matrix(1.43735 0 0 1.07801 -5.28289181 -17.92866948)"/><path style="fill:none;stroke:#000;stroke-width:4.87841;stroke-dasharray:4.87841,9.75682;stroke-opacity:0" d="M30.661428 2.4392056h.766033v.7660341h-.766033z" transform="translate(-28.222223)"/></svg>