<?xml version="1.0" encoding="UTF-8" standalone="no"?>
<!-- Created with Inkscape (http://www.inkscape.org/) -->

<svg
   width="112pt"
   height="16.000002pt"
   viewBox="0 0 39.51111 5.6444452"
   version="1.1"
   id="svg1"
   sodipodi:docname="swatch_icons.svg"
   inkscape:version="1.3 (0e150ed6c4, 2023-07-21)"
   xmlns:inkscape="http://www.inkscape.org/namespaces/inkscape"
   xmlns:sodipodi="http://sodipodi.sourceforge.net/DTD/sodipodi-0.dtd"
   xmlns:xlink="http://www.w3.org/1999/xlink"
   xmlns="http://www.w3.org/2000/svg"
   xmlns:svg="http://www.w3.org/2000/svg"
   xmlns:rdf="http://www.w3.org/1999/02/22-rdf-syntax-ns#"
   xmlns:cc="http://creativecommons.org/ns#">
  <sodipodi:namedview
     id="namedview1"
     pagecolor="#ffffff"
     bordercolor="#000000"
     borderopacity="0.25"
     inkscape:showpageshadow="2"
     inkscape:pageopacity="0.0"
     inkscape:pagecheckerboard="0"
     inkscape:deskcolor="#d1d1d1"
     inkscape:document-units="pt"
     showgrid="true"
     inkscape:zoom="4"
     inkscape:cx="93.75"
     inkscape:cy="24.625"
     inkscape:window-width="1920"
     inkscape:window-height="1009"
     inkscape:window-x="-8"
     inkscape:window-y="-8"
     inkscape:window-maximized="1"
     inkscape:current-layer="layer1">
    <inkscape:grid
       id="grid1"
       units="pt"
       originx="2.9595256e-07"
       originy="4.084755e-07"
       spacingx="0.35277778"
       spacingy="0.35277778"
       empcolor="#0099e5"
       empopacity="0.30196078"
       color="#0099e5"
       opacity="0.14901961"
       empspacing="8"
       dotted="false"
       gridanglex="30"
       gridanglez="30"
       visible="true" />
    <inkscape:page
       x="0"
       y="0"
       width="39.511112"
       height="5.6444454"
       id="page5"
       margin="0"
       bleed="0" />
  </sodipodi:namedview>
  <defs
     id="defs1">
    <pattern
       inkscape:collect="always"
       xlink:href="#halftones"
       preserveAspectRatio="xMidYMid"
       id="pattern7"
       patternTransform="scale(0.2)"
       x="-16"
       y="-16" />
    <pattern
       patternUnits="userSpaceOnUse"
       width="10"
       height="10"
       preserveAspectRatio="xMidYMid"
       style="fill:#000000"
       id="halftones"
       x="0"
       y="0"
       inkscape:label="Halftones"
       inkscape:collect="always"
       inkscape:isstock="true">
      <g
         id="fullPattern"
         style="display:inline"
         transform="scale(0.1)">
        <circle
           style="fill-opacity:1;stroke:none;paint-order:markers fill stroke;stop-color:#000000"
           id="circle10"
           cx="50"
           cy="50"
           r="25" />
        <path
           id="circle37"
           style="paint-order:markers fill stroke"
           d="M 25,0 A 25,25 0 0 1 0,25 25,25 0 0 1 -25,0 25,25 0 0 1 0,-25 25,25 0 0 1 25,0 Z" />
        <path
           id="circle39"
           style="paint-order:markers fill stroke"
           d="M 125,0 A 25,25 0 0 1 100,25 25,25 0 0 1 75,0 25,25 0 0 1 100,-25 25,25 0 0 1 125,0 Z" />
        <path
           id="circle43"
           style="paint-order:markers fill stroke"
           d="M 25,100 A 25,25 0 0 1 0,125 25,25 0 0 1 -25,100 25,25 0 0 1 0,75 25,25 0 0 1 25,100 Z" />
        <path
           id="circle45"
           style="paint-order:markers fill stroke"
           d="m 125,100 a 25,25 0 0 1 -25,25 25,25 0 0 1 -25,-25 25,25 0 0 1 25,-25 25,25 0 0 1 25,25 z" />
      </g>
    </pattern>
    <inkscape:path-effect
       effect="mirror_symmetry"
       start_point="16.364021,12.372796"
       end_point="24.745597,20.754372"
       center_point="20.554809,16.563584"
       id="path-effect11"
       is_visible="true"
       lpeversion="1.2"
       lpesatellites=""
       mode="free"
       discard_orig_path="false"
       fuse_paths="false"
       oposite_fuse="false"
       split_items="false"
       split_open="false"
       link_styles="false" />
    <inkscape:path-effect
       effect="mirror_symmetry"
       start_point="19.083044,16.837981"
       end_point="20.829206,15.091819"
       center_point="19.956125,15.9649"
       id="path-effect10"
       is_visible="true"
       lpeversion="1.2"
       lpesatellites=""
       mode="free"
       discard_orig_path="false"
       fuse_paths="false"
       oposite_fuse="false"
       split_items="false"
       split_open="false"
       link_styles="false" />
    <inkscape:path-effect
       effect="mirror_symmetry"
       start_point="19.956125,15.9649"
       end_point="21.452834,17.461609"
       center_point="20.704479,16.713254"
       id="path-effect9"
       is_visible="true"
       lpeversion="1.2"
       lpesatellites=""
       mode="free"
       discard_orig_path="false"
       fuse_paths="false"
       oposite_fuse="false"
       split_items="false"
       split_open="false"
       link_styles="false" />
    <inkscape:path-effect
       effect="mirror_symmetry"
       start_point="8.4666668,18.697222"
       end_point="8.4666668,21.638361"
       center_point="8.4666668,20.167791"
       id="path-effect8"
       is_visible="true"
       lpeversion="1.2"
       lpesatellites=""
       mode="free"
       discard_orig_path="false"
       fuse_paths="true"
       oposite_fuse="false"
       split_items="false"
       split_open="false"
       link_styles="false" />
    <inkscape:path-effect
       effect="mirror_symmetry"
       start_point="2.8222223,17.638896"
       end_point="2.8222223,21.872222"
       center_point="2.8222223,19.755559"
       id="path-effect7"
       is_visible="true"
       lpeversion="1.2"
       lpesatellites=""
       mode="free"
       discard_orig_path="false"
       fuse_paths="false"
       oposite_fuse="false"
       split_items="false"
       split_open="false"
       link_styles="false" />
    <inkscape:path-effect
       effect="mirror_symmetry"
       start_point="2.8222223,17.63889"
       end_point="2.8222223,20.108335"
       center_point="2.8222223,18.873613"
       id="path-effect6"
       is_visible="true"
       lpeversion="1.2"
       lpesatellites=""
       mode="free"
       discard_orig_path="false"
       fuse_paths="true"
       oposite_fuse="false"
       split_items="false"
       split_open="false"
       link_styles="false" />
    <inkscape:path-effect
       effect="mirror_symmetry"
       start_point="1.9430339,20.32576"
       end_point="1.9430339,22.914001"
       center_point="1.9430339,21.619881"
       id="path-effect5"
       is_visible="true"
       lpeversion="1.2"
       lpesatellites=""
       mode="free"
       discard_orig_path="false"
       fuse_paths="false"
       oposite_fuse="false"
       split_items="false"
       split_open="false"
       link_styles="false" />
    <inkscape:path-effect
       effect="mirror_symmetry"
       start_point="19.956125,15.9649"
       end_point="21.452834,17.461609"
       center_point="20.704479,16.713254"
       id="path-effect9-7"
       is_visible="true"
       lpeversion="1.2"
       lpesatellites=""
       mode="free"
       discard_orig_path="false"
       fuse_paths="false"
       oposite_fuse="false"
       split_items="false"
       split_open="false"
       link_styles="false" />
    <inkscape:path-effect
       effect="mirror_symmetry"
       start_point="19.083044,16.837981"
       end_point="20.829206,15.091819"
       center_point="19.956125,15.9649"
       id="path-effect10-8"
       is_visible="true"
       lpeversion="1.2"
       lpesatellites=""
       mode="free"
       discard_orig_path="false"
       fuse_paths="false"
       oposite_fuse="false"
       split_items="false"
       split_open="false"
       link_styles="false" />
  </defs>
  <g
     inkscape:groupmode="layer"
     id="layer2"
     inkscape:label="old"
     style="display:none">
    <path
       id="rect6"
       style="stroke-width:0.235527"
       d="m 1.3624034,18.032901 c -0.2027134,0.270859 -0.3040701,0.6259 -0.3040701,0.980941 0.08821,1.143138 1.763889,2.85838 1.763889,2.85838 v -3.814501 c 0,0 -0.097401,-0.127349 -0.1549402,-0.178808 -0.057539,-0.05146 -0.1180304,-0.09474 -0.1804894,-0.129756 -0.062459,-0.03501 -0.1268862,-0.06175 -0.192298,-0.08013 -0.065412,-0.01838 -0.1318082,-0.02838 -0.1982057,-0.02993 -0.066398,-0.0015 -0.1327963,0.0054 -0.1982127,0.02085 -0.065416,0.01548 -0.1298505,0.03951 -0.1923188,0.0722 -0.062468,0.03269 -0.1229709,0.07403 -0.1805242,0.124126 -0.057553,0.05009 -0.1121574,0.108937 -0.1628288,0.176627 h -1e-7 -2e-7 -1e-7 -2e-7 -10e-8 -1e-7 -2e-7 z m 2.9196378,0 c 0.2027134,0.270859 0.3040701,0.6259 0.3040701,0.980941 -0.08821,1.143138 -1.763889,2.85838 -1.763889,2.85838 v -3.814501 c 0,0 0.097401,-0.127349 0.1549402,-0.178808 0.057539,-0.05146 0.1180304,-0.09474 0.1804894,-0.129756 0.062459,-0.03501 0.1268862,-0.06175 0.192298,-0.08013 0.065412,-0.01838 0.1318082,-0.02838 0.1982057,-0.02993 0.066398,-0.0015 0.1327963,0.0054 0.1982127,0.02085 0.065416,0.01548 0.1298505,0.03951 0.1923188,0.0722 0.062468,0.03269 0.1229709,0.07403 0.1805242,0.124126 0.057553,0.05009 0.1121574,0.108937 0.1628288,0.176627 h 1e-7 2e-7 1e-7 2e-7 1e-7 1e-7 2e-7 z"
       sodipodi:nodetypes="csccsssssssccccccccc"
       inkscape:path-effect="#path-effect7"
       inkscape:original-d="m 1.3624034,18.032901 c -0.2027134,0.270859 -0.3040701,0.6259 -0.3040701,0.980941 0.08821,1.143138 1.763889,2.85838 1.763889,2.85838 v -3.814501 c 0,0 -0.097401,-0.127349 -0.1549402,-0.178808 -0.057539,-0.05146 -0.1180304,-0.09474 -0.1804894,-0.129756 -0.062459,-0.03501 -0.1268862,-0.06175 -0.192298,-0.08013 -0.065412,-0.01838 -0.1318082,-0.02838 -0.1982057,-0.02993 -0.066398,-0.0015 -0.1327963,0.0054 -0.1982127,0.02085 -0.065416,0.01548 -0.1298505,0.03951 -0.1923188,0.0722 -0.062468,0.03269 -0.1229709,0.07403 -0.1805242,0.124126 -0.057553,0.05009 -0.1121574,0.108937 -0.1628288,0.176627 h -1e-7 -2e-7 -1e-7 -2e-7 -10e-8 -1e-7 -2e-7 z"
       inkscape:label="heart"
       transform="translate(11.288889,-0.20941609)" />
    <path
       id="rect7"
       style="stroke-width:0.277"
       transform="rotate(45,5.8972322,13.522186)"
       d="m 19.956125,15.9649 1.496709,1.496709 -1.38852,-0.203274 c -0.454372,-0.06652 -1.355447,-0.04618 -1.355447,-0.04618 z m 0,0 1.496709,1.496709 -0.203274,-1.38852 c -0.06652,-0.454372 -0.04618,-1.355447 -0.04618,-1.355447 z m 0,0 -1.496709,-1.496709 0.203274,1.38852 c 0.06652,0.454372 0.04618,1.355447 0.04618,1.355447 z m 0,0 -1.496709,-1.496709 1.38852,0.203274 c 0.454372,0.06652 1.355447,0.04618 1.355447,0.04618 z"
       sodipodi:nodetypes="ccscc"
       inkscape:path-effect="#path-effect9;#path-effect10"
       inkscape:original-d="m 19.956125,15.9649 1.496709,1.496709 -1.38852,-0.203274 c -0.454372,-0.06652 -1.355447,-0.04618 -1.355447,-0.04618 z"
       inkscape:label="diamonds" />
    <path
       id="rect7-0"
       style="stroke-width:0.277"
       d="m 16.962413,12.971188 c -0.688799,0.689122 -0.710739,1.78384 -0.049,2.444906 0.492789,0.490432 1.247829,0.617323 1.904029,0.319988 l 0.04422,0.157491 c 0.06611,0.234466 0.03291,0.550304 -0.01929,0.813836 -0.499404,-0.02545 -0.994117,0.167826 -1.355808,0.529695 -0.688442,0.688765 -0.71077,1.782801 -0.04988,2.444029 0.661066,0.661739 1.755784,0.639798 2.444906,-0.049 0.688799,-0.689122 0.71074,-1.78384 0.049,-2.444906 -0.05847,-0.05891 -0.121365,-0.113256 -0.188185,-0.162607 0.101092,0.0015 0.198883,0.01024 0.284762,0.03446 l 0.356784,0.100999 c 0.432937,0.505386 0.827886,0.999577 1.041814,1.350584 0.648833,1.064584 1.476577,2.89253 1.476577,2.89253 0,0 0.417585,-0.553857 1.176758,-1.315321 z m 0,0 c 0.689122,-0.688799 1.78384,-0.710739 2.444906,-0.049 0.490432,0.492789 0.617323,1.247829 0.319988,1.904029 l 0.157491,0.04422 c 0.234466,0.06611 0.550304,0.03291 0.813836,-0.01929 -0.02545,-0.499404 0.167826,-0.994117 0.529695,-1.355808 0.688765,-0.688442 1.782801,-0.71077 2.444029,-0.04988 0.661739,0.661066 0.639798,1.755784 -0.049,2.444906 -0.689122,0.688799 -1.78384,0.71074 -2.444906,0.049 -0.05891,-0.05847 -0.113256,-0.121365 -0.162607,-0.188185 0.0015,0.101092 0.01024,0.198883 0.03446,0.284762 l 0.100999,0.356784 c 0.505386,0.432937 0.999577,0.827886 1.350584,1.041814 1.064584,0.648833 2.89253,1.476577 2.89253,1.476577 0,0 -0.553857,0.417585 -1.315321,1.176758 z"
       transform="matrix(0.28284268,0.2946277,-0.28284268,0.2946277,18.626667,8.6100326)"
       inkscape:label="clubs"
       sodipodi:nodetypes="ccccccccccccsccc"
       inkscape:path-effect="#path-effect11"
       inkscape:original-d="m 16.962413,12.971188 c -0.688799,0.689122 -0.710739,1.78384 -0.049,2.444906 0.492789,0.490432 1.247829,0.617323 1.904029,0.319988 l 0.04422,0.157491 c 0.06611,0.234466 0.03291,0.550304 -0.01929,0.813836 -0.499404,-0.02545 -0.994117,0.167826 -1.355808,0.529695 -0.688442,0.688765 -0.71077,1.782801 -0.04988,2.444029 0.661066,0.661739 1.755784,0.639798 2.444906,-0.049 0.688799,-0.689122 0.71074,-1.78384 0.049,-2.444906 -0.05847,-0.05891 -0.121365,-0.113256 -0.188185,-0.162607 0.101092,0.0015 0.198883,0.01024 0.284762,0.03446 l 0.356784,0.100999 c 0.432937,0.505386 0.827886,0.999577 1.041814,1.350584 0.648833,1.064584 1.476577,2.89253 1.476577,2.89253 0,0 0.417585,-0.553857 1.176758,-1.315321 z" />
  </g>
  <g
     inkscape:label="swatch set"
     inkscape:groupmode="layer"
     id="layer1">
    <path
       id="path1"
       style="display:inline;fill:#000000;fill-opacity:1;stroke-width:0.470043"
       inkscape:transform-center-y="-0.94074066"
       d="M 11.28889,5.6444445 H 5.6444447 L 11.28889,-1.0807581e-7 Z"
       sodipodi:nodetypes="cccc"
       inkscape:label="bissection (right)" />
    <path
       id="path1-5"
       style="display:inline;fill:#000000;fill-opacity:1;stroke-width:0.470043"
       inkscape:transform-center-y="0.94074065"
       d="M 0,0 5.6444453,1e-7 0,5.6444446 Z"
       sodipodi:nodetypes="cccc"
       inkscape:label="bissection (left)" />
    <rect
       style="display:inline;fill:url(#pattern7);fill-opacity:1;stroke-width:0.277"
       id="rect1"
       width="5.6444445"
       height="5.6444445"
       x="11.288889"
       y="3.9618379e-07"
       inkscape:label="dots" />
    <path
       id="rect11"
       style="fill:#000000;fill-opacity:1;stroke-width:0.254551"
       d="m 18.002159,1.1028902 a 1.2399147,1.3561888 2.261874e-5 0 0 -3.21e-4,1.917825 l 1.753718,1.918174 1.753397,-1.917823 a 1.3561888,1.2399147 89.999978 0 0 0,-1.918176 1.3561888,1.2399147 89.999978 0 0 -1.753718,10e-7 1.2399147,1.3561888 2.261874e-5 0 0 -1.753076,-10e-7 z" />
    <rect
       style="fill:#000000;fill-opacity:1;stroke-width:0.183512"
       id="rect12"
       width="2.7552822"
       height="2.7552826"
       x="20.297247"
       y="-19.378817"
       transform="matrix(0.64018456,0.76822115,-0.64018443,0.76822126,0,0)"
       inkscape:label="diamonds" />
    <g
       id="g13"
       inkscape:label="clubs"
       transform="translate(22.577778,-16.933247)">
      <path
         id="path12"
         style="fill:#000000;fill-opacity:1;stroke-width:0.401138"
         d="M 8.4666668,17.638717 A 1.0583327,1.0583327 0 0 0 7.4083335,18.69705 1.0583327,1.0583327 0 0 0 7.4724122,19.052067 1.0583327,1.0583327 0 0 0 7.4083335,19.05 1.0583327,1.0583327 0 0 0 6.3500001,20.108334 1.0583327,1.0583327 0 0 0 7.4083335,21.166667 1.0583327,1.0583327 0 0 0 8.4666668,20.108334 1.0583327,1.0583327 0 0 0 9.5250002,21.166667 1.0583327,1.0583327 0 0 0 10.583334,20.108334 1.0583327,1.0583327 0 0 0 9.5250002,19.05 1.0583327,1.0583327 0 0 0 9.4598882,19.0547 1.0583327,1.0583327 0 0 0 9.5250002,18.697099 1.0583327,1.0583327 0 0 0 8.4666668,17.638766 Z" />
      <path
         sodipodi:type="star"
         style="fill:#000000;fill-opacity:1;stroke-width:0.277"
         id="path13"
         inkscape:flatsided="true"
         sodipodi:sides="3"
         sodipodi:cx="5.6389322"
         sodipodi:cy="20.885548"
         sodipodi:r1="0.65449709"
         sodipodi:r2="0.32724851"
         sodipodi:arg1="0.52359878"
         sodipodi:arg2="1.5707963"
         inkscape:rounded="0"
         inkscape:randomized="0"
         d="m 6.2057433,21.212796 -1.1336222,0 0.5668111,-0.981745 z"
         inkscape:transform-center-y="-0.17638854"
         transform="matrix(1.437349,0,0,1.0780118,0.36155319,-0.99542248)" />
    </g>
    <g
       id="g14"
       inkscape:label="spades"
       transform="translate(28.222223,-22.577778)">
      <path
         id="rect11-0"
         style="fill:#000000;fill-opacity:1;stroke-width:0.190913"
         d="M 7.1516194,26.160332 A 1.0171414,0.92993586 89.999977 0 1 7.151379,24.721963 l 1.3152876,-1.43863 1.315048,1.438368 a 0.92993586,1.0171414 2.2e-5 0 1 0,1.438631 0.92993586,1.0171414 2.2e-5 0 1 -1.3152885,-1e-6 1.0171414,0.92993586 89.999977 0 1 -1.3148067,1e-6 z" />
      <path
         sodipodi:type="star"
         style="fill:#000000;fill-opacity:1;stroke-width:0.277"
         id="path13-9"
         inkscape:flatsided="true"
         sodipodi:sides="3"
         sodipodi:cx="5.6389322"
         sodipodi:cy="20.885548"
         sodipodi:r1="0.65449709"
         sodipodi:r2="0.32724851"
         sodipodi:arg1="0.52359878"
         sodipodi:arg2="1.5707963"
         inkscape:rounded="0"
         inkscape:randomized="0"
         d="m 6.2057433,21.212796 -1.1336222,0 0.5668111,-0.981745 z"
         inkscape:transform-center-y="-0.17638854"
         transform="matrix(1.437349,0,0,1.0780118,0.36155319,4.6490219)" />
    </g>
  </g>
  <metadata
     id="metadata5">
    <rdf:RDF>
      <cc:Work
         rdf:about="">
        <cc:license
           rdf:resource="http://creativecommons.org/licenses/by-nc-sa/4.0/" />
      </cc:Work>
      <cc:License
         rdf:about="http://creativecommons.org/licenses/by-nc-sa/4.0/">
        <cc:permits
           rdf:resource="http://creativecommons.org/ns#Reproduction" />
        <cc:permits
           rdf:resource="http://creativecommons.org/ns#Distribution" />
        <cc:requires
           rdf:resource="http://creativecommons.org/ns#Notice" />
        <cc:requires
           rdf:resource="http://creativecommons.org/ns#Attribution" />
        <cc:prohibits
           rdf:resource="http://creativecommons.org/ns#CommercialUse" />
        <cc:permits
           rdf:resource="http://creativecommons.org/ns#DerivativeWorks" />
        <cc:requires
           rdf:resource="http://creativecommons.org/ns#ShareAlike" />
      </cc:License>
    </rdf:RDF>
  </metadata>
</svg>
